<svg xmlns="http://www.w3.org/2000/svg" xmlns:xlink="http://www.w3.org/1999/xlink" width="68" height="68" viewBox="0 0 68 68">
  <defs>
    <clipPath id="clip-path">
      <path id="Path_120" data-name="Path 120" d="M0,0H54V54H0Z" transform="translate(1374 1068)" fill="none"/>
    </clipPath>
    <clipPath id="clip-path-2">
      <rect id="Rectangle_595" data-name="Rectangle 595" width="50" height="33.001" fill="none"/>
    </clipPath>
  </defs>
  <g id="ALEXA" transform="translate(-1273 -840)">
    <circle id="Ellipse_75" data-name="Ellipse 75" cx="34" cy="34" r="34" transform="translate(1273 840)" fill="#08abff" opacity="0.1"/>
    <g id="ALEXA-2" data-name="ALEXA" transform="translate(-94 -221)" clip-path="url(#clip-path)">
      <g id="Group_4688" data-name="Group 4688" transform="translate(1376 1078)">
        <g id="Group_4687" data-name="Group 4687" clip-path="url(#clip-path-2)">
          <path id="Path_4074" data-name="Path 4074" d="M25.007,14.913c-7.337,0-14.18-.908-18.771-2.49-.027-.009-.055-.019-.081-.031C2.4,11.083.488,9.423.488,7.458.488,2.562,12.823,0,25.007,0c.92,0,1.842.015,2.739.044,10.85.338,21.78,2.762,21.78,7.414S38.6,14.531,27.764,14.867h-.053c-.858.031-1.78.046-2.7.046M7.03,10.384c4.372,1.49,10.916,2.343,17.977,2.343.9,0,1.8-.015,2.668-.043h.054c12.615-.4,19.611-3.34,19.611-5.225s-7-4.834-19.645-5.229C26.8,2.2,25.9,2.186,25.009,2.186c-13.632,0-22.333,3.123-22.333,5.273,0,.654,1.111,1.8,4.245,2.886a1.075,1.075,0,0,1,.108.039" transform="translate(-0.036)" fill="#35aee3"/>
          <path id="Path_4075" data-name="Path 4075" d="M26.152,3.83c1.66,0,3.006.618,3.006,1.379s-1.346,1.379-3.006,1.379-3.006-.618-3.006-1.379S24.492,3.83,26.152,3.83" transform="translate(-1.712 -0.283)" fill="#35aee3"/>
          <path id="Path_4076" data-name="Path 4076" d="M27.44,9.342c1.66,0,3.006.618,3.006,1.379S29.1,12.1,27.44,12.1s-3.006-.618-3.006-1.379S25.78,9.342,27.44,9.342" transform="translate(-1.807 -0.691)" fill="#35aee3"/>
          <path id="Path_4077" data-name="Path 4077" d="M35.881,6.044c1.66,0,3.006.618,3.006,1.379S37.541,8.8,35.881,8.8s-3.006-.618-3.006-1.379,1.346-1.379,3.006-1.379" transform="translate(-2.431 -0.447)" fill="#35aee3"/>
          <path id="Path_4078" data-name="Path 4078" d="M17.279,6.044c1.66,0,3.006.618,3.006,1.379S18.939,8.8,17.279,8.8s-3.006-.618-3.006-1.379,1.346-1.379,3.006-1.379" transform="translate(-1.056 -0.447)" fill="#35aee3"/>
          <path id="Path_4079" data-name="Path 4079" d="M24.98,33.82a36.945,36.945,0,0,1-5.919-.477l-8.14-1.319A12.952,12.952,0,0,1,0,19.191V12.169a1.093,1.093,0,0,1,2.076-.477s.935,1.61,4.842,3.084C11.229,16.4,17.3,17.223,24.97,17.223c.991,0,1.871-.012,2.686-.036,17.248-.471,20.254-5.473,20.28-5.523l.02-.034A1.093,1.093,0,0,1,50,12.17v7.021A12.953,12.953,0,0,1,39.087,32.022l-8.141,1.319c-1.057.171-2.114.3-3.144.37q-1.406.108-2.822.108" transform="translate(0 -0.819)" fill="#35aee3"/>
          <path id="Path_4080" data-name="Path 4080" d="M2.361,15.078v4.407A10.776,10.776,0,0,0,11.446,30.16l8.139,1.323a34.789,34.789,0,0,0,8.231.346c.971-.069,1.963-.185,2.956-.346l8.14-1.319A10.775,10.775,0,0,0,47.995,19.49V15.064c-2.6,1.852-8.242,4.278-20.1,4.6-.839.025-1.739.037-2.751.037-7.931,0-14.261-.87-18.823-2.588a17.229,17.229,0,0,1-3.964-2.037" transform="translate(-0.175 -1.114)" fill="#35aee3"/>
        </g>
      </g>
    </g>
  </g>
</svg>
