<svg xmlns="http://www.w3.org/2000/svg" xmlns:xlink="http://www.w3.org/1999/xlink" width="68" height="68" viewBox="0 0 68 68">
  <defs>
    <clipPath id="clip-path">
      <path id="Path_4186" data-name="Path 4186" d="M0,0H54V54H0Z" transform="translate(1282 1591)" fill="#f5f5f5"/>
    </clipPath>
    <clipPath id="clip-path-2">
      <rect id="Rectangle_658" data-name="Rectangle 658" width="48" height="30.33" fill="#f34e4e"/>
    </clipPath>
  </defs>
  <g id="Barcode" transform="translate(-1189 -918)">
    <circle id="Ellipse_81" data-name="Ellipse 81" cx="34" cy="34" r="34" transform="translate(1189 918)" fill="#ff0808" opacity="0.1"/>
    <g id="Barcode-2" data-name="Barcode" transform="translate(-86 -666)" clip-path="url(#clip-path)">
      <g id="Group_4727" data-name="Group 4727" transform="translate(1285 1603)">
        <g id="Group_4726" data-name="Group 4726" clip-path="url(#clip-path-2)">
          <path id="Path_4253" data-name="Path 4253" d="M2.239,21.618H.131A.131.131,0,0,1,0,21.487V.13A.131.131,0,0,1,.131,0H2.239A.131.131,0,0,1,2.37.13V21.487a.131.131,0,0,1-.131.131" transform="translate(0 0.001)" fill="#f34e4e"/>
          <path id="Path_4254" data-name="Path 4254" d="M29.255,21.618h-.771a.131.131,0,0,1-.131-.131V.13A.131.131,0,0,1,28.484,0h.771a.131.131,0,0,1,.131.131V21.487a.131.131,0,0,1-.131.131" transform="translate(-24.638 0.001)" fill="#f34e4e"/>
          <path id="Path_4255" data-name="Path 4255" d="M68.367,21.618H66.131A.131.131,0,0,1,66,21.487V.13A.131.131,0,0,1,66.131,0h2.235A.131.131,0,0,1,68.5.13V21.487a.131.131,0,0,1-.131.131" transform="translate(-57.351 0.001)" fill="#f34e4e"/>
          <path id="Path_4256" data-name="Path 4256" d="M176.814,21.618h-1.742a.131.131,0,0,1-.131-.131V.13A.131.131,0,0,1,175.072,0h1.742a.131.131,0,0,1,.131.131V21.487a.131.131,0,0,1-.131.131" transform="translate(-152.016 0.001)" fill="#f34e4e"/>
          <path id="Path_4257" data-name="Path 4257" d="M272.194,21.618h-1.827a.131.131,0,0,1-.131-.131V.13A.131.131,0,0,1,270.367,0h1.827a.131.131,0,0,1,.131.131V21.487a.131.131,0,0,1-.131.131" transform="translate(-234.824 0.001)" fill="#f34e4e"/>
          <path id="Path_4258" data-name="Path 4258" d="M318.587,21.618h-2.22a.131.131,0,0,1-.131-.131V.13A.131.131,0,0,1,316.367,0h2.22a.131.131,0,0,1,.131.131V21.487a.131.131,0,0,1-.131.131" transform="translate(-274.796 0.001)" fill="#f34e4e"/>
          <path id="Path_4259" data-name="Path 4259" d="M120.329,21.618h-3.022a.131.131,0,0,1-.131-.131V.13A.131.131,0,0,1,117.307,0h3.022a.131.131,0,0,1,.131.131V21.487a.131.131,0,0,1-.131.131" transform="translate(-101.821 0.001)" fill="#f34e4e"/>
          <path id="Path_4260" data-name="Path 4260" d="M207.714,21.618h-3.407a.131.131,0,0,1-.131-.131V.13A.131.131,0,0,1,204.307,0h3.407a.131.131,0,0,1,.131.131V21.487a.131.131,0,0,1-.131.131" transform="translate(-177.42 0.001)" fill="#f34e4e"/>
          <path id="Path_4261" data-name="Path 4261" d="M95.232,21.618h-.925a.131.131,0,0,1-.131-.131V.13A.131.131,0,0,1,94.307,0h.925a.131.131,0,0,1,.131.131V21.487a.131.131,0,0,1-.131.131" transform="translate(-81.835 0.001)" fill="#f34e4e"/>
          <path id="Path_4262" data-name="Path 4262" d="M49.622,21.618H49.19a.131.131,0,0,1-.131-.131V.13A.131.131,0,0,1,49.19,0h.432a.131.131,0,0,1,.131.131V21.487a.131.131,0,0,1-.131.131" transform="translate(-42.63 0.001)" fill="#f34e4e"/>
          <path id="Path_4263" data-name="Path 4263" d="M238.4,21.618h-1.033a.131.131,0,0,1-.131-.131V.13A.131.131,0,0,1,237.367,0H238.4a.131.131,0,0,1,.131.131V21.487a.131.131,0,0,1-.131.131" transform="translate(-206.148 0.001)" fill="#f34e4e"/>
          <path id="Path_4264" data-name="Path 4264" d="M299.458,21.618h-1.033a.131.131,0,0,1-.131-.131V.13A.131.131,0,0,1,298.425,0h1.033a.131.131,0,0,1,.131.131V21.487a.131.131,0,0,1-.131.131" transform="translate(-259.205 0.001)" fill="#f34e4e"/>
          <path id="Path_4265" data-name="Path 4265" d="M356.452,21.618h-1.2a.131.131,0,0,1-.131-.131V.13A.131.131,0,0,1,355.249,0h1.2a.131.131,0,0,1,.131.131V21.487a.131.131,0,0,1-.131.131" transform="translate(-308.583 0.001)" fill="#f34e4e"/>
          <path id="Path_4266" data-name="Path 4266" d="M252.681,21.618h-.432a.131.131,0,0,1-.131-.131V.13A.131.131,0,0,1,252.249,0h.432a.131.131,0,0,1,.131.131V21.487a.131.131,0,0,1-.131.131" transform="translate(-219.08 0.001)" fill="#f34e4e"/>
          <path id="Path_4267" data-name="Path 4267" d="M343.806,21.618h-.528a.131.131,0,0,1-.131-.131V.13A.131.131,0,0,1,343.278,0h.528a.131.131,0,0,1,.131.131V21.487a.131.131,0,0,1-.131.131" transform="translate(-298.18 0.001)" fill="#f34e4e"/>
          <path id="Path_4268" data-name="Path 4268" d="M153.259,21.618h-.3a.131.131,0,0,1-.131-.131V.13A.131.131,0,0,1,152.954,0h.3a.131.131,0,0,1,.131.131V21.487a.131.131,0,0,1-.131.131" transform="translate(-132.797 0.001)" fill="#f34e4e"/>
          <path id="Path_4269" data-name="Path 4269" d="M54.385,199.872c0,.811-.555,1.257-1.491,1.257H50.832v-4.489h1.923c.936,0,1.5.417,1.5,1.221a.972.972,0,0,1-.6.95,1.1,1.1,0,0,1,.731,1.06m-1.762-1.455c.344,0,.526-.132.526-.409s-.183-.4-.526-.4H51.95v.811Zm-.673,1.747h.789c.329,0,.512-.176.512-.431s-.183-.439-.512-.439H51.95Z" transform="translate(-44.171 -170.873)" fill="#f34e4e"/>
          <path id="Path_4270" data-name="Path 4270" d="M87.378,196.641l1.711,4.489H87.9l-.322-.87h-1.63l-.314.87H84.468l1.711-4.489ZM86.3,199.295h.921l-.46-1.265Z" transform="translate(-73.399 -170.873)" fill="#f34e4e"/>
          <path id="Path_4271" data-name="Path 4271" d="M129.419,199.646v1.484h-1.162v-4.489h2.018a1.468,1.468,0,0,1,1.63,1.528,1.349,1.349,0,0,1-.892,1.352l1.053,1.608h-1.3l-.936-1.484Zm0-.936h.731c.417,0,.607-.212.607-.541s-.19-.541-.607-.541h-.731Z" transform="translate(-111.45 -170.873)" fill="#f34e4e"/>
          <path id="Path_4272" data-name="Path 4272" d="M166.673,196.084a1.829,1.829,0,0,1,1.937,1.579h-1.17a.759.759,0,0,0-.768-.548c-.621,0-.972.548-.972,1.287s.351,1.287.972,1.287a.757.757,0,0,0,.768-.556h1.17a1.829,1.829,0,0,1-1.937,1.586,2.323,2.323,0,0,1,0-4.635" transform="translate(-142.957 -170.389)" fill="#f34e4e"/>
          <path id="Path_4273" data-name="Path 4273" d="M205.917,200.719a2.32,2.32,0,1,1,2.2-2.317,2.168,2.168,0,0,1-2.2,2.317m0-3.6c-.607,0-1,.512-1,1.287s.395,1.287,1,1.287,1.016-.512,1.016-1.287-.41-1.287-1.016-1.287" transform="translate(-177.034 -170.389)" fill="#f34e4e"/>
          <path id="Path_4274" data-name="Path 4274" d="M246.516,196.641h1.7a2.244,2.244,0,1,1,0,4.489h-1.7Zm1.638,3.472a1.234,1.234,0,0,0,0-2.464h-.483v2.464Z" transform="translate(-214.212 -170.873)" fill="#f34e4e"/>
          <path id="Path_4275" data-name="Path 4275" d="M289.275,196.642v1.009h-2.054v.7H289.1v.987h-1.879v.775h2.054v1.016h-3.209v-4.489Z" transform="translate(-248.579 -170.873)" fill="#f34e4e"/>
        </g>
      </g>
    </g>
  </g>
</svg>
