<svg xmlns="http://www.w3.org/2000/svg" xmlns:xlink="http://www.w3.org/1999/xlink" width="68" height="68" viewBox="0 0 68 68">
  <defs>
    <clipPath id="clip-path">
      <path id="Path_4228" data-name="Path 4228" d="M0,0H54V54H0Z" transform="translate(985 1517)" fill="#f5f5f5"/>
    </clipPath>
    <clipPath id="clip-path-2">
      <rect id="Rectangle_645" data-name="Rectangle 645" width="42.747" height="43.134" fill="#29c875"/>
    </clipPath>
  </defs>
  <g id="Business_Whatsapp" data-name="Business Whatsapp" transform="translate(-1128 -1108)">
    <circle id="Ellipse_18" data-name="Ellipse 18" cx="34" cy="34" r="34" transform="translate(1128 1108)" fill="#00cf61" opacity="0.1"/>
    <g id="Business_Whatsapp-2" data-name="Business Whatsapp" transform="translate(150 -402)" clip-path="url(#clip-path)">
      <g id="Group_4723" data-name="Group 4723" transform="translate(990.411 1522.433)">
        <g id="Group_4722" data-name="Group 4722" clip-path="url(#clip-path-2)">
          <path id="Path_4226" data-name="Path 4226" d="M0,43.134c.469-1.463.871-2.728,1.281-3.991.724-2.226,1.473-4.445,2.159-6.683A1.665,1.665,0,0,0,3.312,31.3,21.055,21.055,0,1,1,25.534,41.66a21.144,21.144,0,0,1-13.521-1.95,1.543,1.543,0,0,0-1.049-.054C7.635,40.7,4.317,41.77,1,42.834c-.261.084-.525.158-1,.3m5.524-5.476c2.022-.655,3.895-1.246,5.754-1.876a1.41,1.41,0,0,1,1.315.146A17.1,17.1,0,0,0,24.2,38.316a17.438,17.438,0,1,0-17.007-7.55,1.411,1.411,0,0,1,.19,1.417c-.63,1.762-1.208,3.542-1.861,5.476" transform="translate(0 0)" fill="#29c875"/>
          <path id="Path_4227" data-name="Path 4227" d="M91.345,71.26A5.692,5.692,0,0,1,92.766,77a5.6,5.6,0,0,1-5.394,4.338c-2.6.065-5.206.068-7.809.07-1.422,0-1.939-.545-1.94-1.979q-.006-8.094,0-16.188c0-1.287.448-1.744,1.738-1.742,2.533,0,5.066.009,7.6.052a5.53,5.53,0,0,1,5.508,5.379,5.949,5.949,0,0,1-1.123,4.331m-6.566,6.159c0,.017,0,.033,0,.05.844,0,1.689.025,2.532-.006,1.137-.041,1.686-.695,1.706-1.966s-.551-2.054-1.675-2.08c-1.736-.04-3.474-.011-5.21.032a.693.693,0,0,0-.473.483c-.046.984-.012,1.971-.028,2.957-.006.4.152.541.541.534.869-.016,1.737,0,2.606,0M84.552,69.4c0,.02,0,.04,0,.06.749,0,1.5.016,2.247,0,1.214-.032,1.8-.664,1.817-1.924.017-1.378-.552-2.115-1.765-2.129-1.568-.019-3.137.05-4.706.068-.406,0-.518.2-.512.573.013.914.02,1.828,0,2.742-.012.449.138.636.6.621.773-.025,1.547-.007,2.32-.007" transform="translate(-63.009 -49.921)" fill="#29c875"/>
        </g>
      </g>
    </g>
  </g>
</svg>
