<svg xmlns="http://www.w3.org/2000/svg" xmlns:xlink="http://www.w3.org/1999/xlink" width="68" height="68" viewBox="0 0 68 68">
  <defs>
    <clipPath id="clip-path">
      <path id="Path_4225" data-name="Path 4225" d="M0,0H54V54H0Z" transform="translate(1260 1463)" fill="#f5f5f5"/>
    </clipPath>
    <clipPath id="clip-path-2">
      <rect id="Rectangle_644" data-name="Rectangle 644" width="44" height="41" transform="translate(0.174 0.289)" fill="#35aee3"/>
    </clipPath>
  </defs>
  <g id="CMS" transform="translate(-1273 -762)">
    <circle id="Ellipse_75" data-name="Ellipse 75" cx="34" cy="34" r="34" transform="translate(1273 762)" fill="#08abff" opacity="0.1"/>
    <g id="CMS-2" data-name="CMS" transform="translate(20 -694)" clip-path="url(#clip-path)">
      <g id="Group_4721" data-name="Group 4721" transform="translate(1263 1468)">
        <g id="Group_4720" data-name="Group 4720" transform="translate(1.826 1.711)" clip-path="url(#clip-path-2)">
          <path id="Path_4219" data-name="Path 4219" d="M44.4,3.466V25.983H36.515c0-1.315.007-2.569,0-3.823a1.3,1.3,0,0,0-1.353-1.371c-.375-.009-.75,0-1.126,0-.839,0-.827-.005-1.158-.781a.456.456,0,0,1,.127-.6q.6-.561,1.162-1.163a1.247,1.247,0,0,0,.018-1.795q-1.843-1.891-3.735-3.733a1.243,1.243,0,0,0-1.762.01c-.288.262-.556.546-.831.821-.635.634-.631.626-1.442.283a.4.4,0,0,1-.3-.448c.019-.562.018-1.126,0-1.688A1.274,1.274,0,0,0,24.823,10.4q-2.6-.023-5.2,0a1.278,1.278,0,0,0-1.3,1.293c-.014.389,0,.779,0,1.169,0,.857-.006.844-.808,1.183a.429.429,0,0,1-.56-.127c-.377-.4-.764-.787-1.163-1.163A1.245,1.245,0,0,0,14,12.715q-1.894,1.84-3.736,3.733a1.25,1.25,0,0,0,.017,1.8c.274.3.567.576.853.862.573.575.56.569.257,1.339a.472.472,0,0,1-.545.349c-.5-.025-1.01-.012-1.515-.006a1.309,1.309,0,0,0-1.4,1.415c-.006.606,0,1.212,0,1.818q0,.966,0,1.93H.07c-.007-.088-.015-.144-.015-.2,0-7.259-.01-14.518.016-21.776a4.237,4.237,0,0,1,.4-1.748A3.814,3.814,0,0,1,4.214,0H34.563Q37.4,0,40.234,0a3.852,3.852,0,0,1,3.335,1.6A10.07,10.07,0,0,1,44.4,3.466M31.322,9.116A3.894,3.894,0,1,0,35.184,5.2a3.93,3.93,0,0,0-3.863,3.915" transform="translate(-0.047 -0.001)" fill="#35aee3"/>
          <path id="Path_4220" data-name="Path 4220" d="M44.349,265.224a10.065,10.065,0,0,1-.827,1.867,3.853,3.853,0,0,1-3.335,1.6q-2.879,0-5.758,0H4.165a3.91,3.91,0,0,1-3.781-2.258,6,6,0,0,1-.364-2.939H44.349Z" transform="translate(0 -234.912)" fill="#35aee3"/>
          <path id="Path_4221" data-name="Path 4221" d="M79.17,335.454H94.9c.251.749.515,1.493.745,2.248a.419.419,0,0,0,.489.345c1.241-.014,2.482-.009,3.723-.005a1.308,1.308,0,1,1-.009,2.6q-12.813,0-25.627,0a1.308,1.308,0,1,1-.006-2.6c1.241,0,2.482-.009,3.723.005a.418.418,0,0,0,.488-.347c.226-.744.486-1.477.743-2.246" transform="translate(-64.859 -299.068)" fill="#35aee3"/>
          <path id="Path_4222" data-name="Path 4222" d="M120.314,130.395v2.565h-5.332a6.491,6.491,0,0,0-6.707-7.746,6.474,6.474,0,0,0-6,7.76H96.972v-2.579c.467,0,.938,0,1.408,0a1.4,1.4,0,0,0,1.531-1.118c.248-.689.531-1.368.844-2.029a1.384,1.384,0,0,0-.284-1.872c-.333-.336-.678-.658-.989-.959l1.878-1.87c.3.313.622.661.958.995a1.374,1.374,0,0,0,1.835.294c.689-.322,1.4-.612,2.109-.876a1.387,1.387,0,0,0,1.069-1.48c0-.474,0-.948,0-1.449h2.6c0,.482,0,.954,0,1.425a1.394,1.394,0,0,0,1.088,1.509c.714.262,1.418.559,2.108.879a1.363,1.363,0,0,0,1.8-.286c.339-.334.665-.681.957-.981l1.873,1.871c-.272.26-.617.579-.949.911a1.4,1.4,0,0,0-.293,1.907c.315.66.593,1.342.842,2.03a1.393,1.393,0,0,0,1.5,1.1c.473,0,.946,0,1.456,0" transform="translate(-86.454 -107.011)" fill="#35aee3"/>
          <path id="Path_4223" data-name="Path 4223" d="M169.007,196.965a3.781,3.781,0,0,1,1.565-4.6,3.881,3.881,0,0,1,5.924,3.127.492.492,0,0,1,.007.129,3.8,3.8,0,0,1-.3,1.276c-.1.165-.642.069-.983.07q-2.875.007-5.751,0Z" transform="translate(-150.433 -170.983)" fill="#35aee3"/>
          <path id="Path_4224" data-name="Path 4224" d="M313.589,71.9a1.3,1.3,0,1,1-1.306,1.285,1.308,1.308,0,0,1,1.306-1.285" transform="translate(-278.41 -64.098)" fill="#35aee3"/>
        </g>
      </g>
    </g>
  </g>
</svg>
