<svg xmlns="http://www.w3.org/2000/svg" xmlns:xlink="http://www.w3.org/1999/xlink" width="68" height="68" viewBox="0 0 68 68">
  <defs>
    <clipPath id="clip-path">
      <path id="Path_4173" data-name="Path 4173" d="M0,0H54V54H0Z" transform="translate(905 1397)" fill="#f5f5f5"/>
    </clipPath>
    <clipPath id="clip-path-2">
      <rect id="Rectangle_627" data-name="Rectangle 627" width="43.913" height="43.999" fill="#29c875"/>
    </clipPath>
  </defs>
  <g id="Digital_Content" data-name="Digital Content" transform="translate(-894 -1108)">
    <circle id="Ellipse_83" data-name="Ellipse 83" cx="34" cy="34" r="34" transform="translate(894 1108)" fill="#00cf61" opacity="0.1"/>
    <g id="Digital_Content-2" data-name="Digital Content" transform="translate(-4 -282)" clip-path="url(#clip-path)">
      <g id="Group_4711" data-name="Group 4711" transform="translate(909.996 1402)">
        <g id="Group_4710" data-name="Group 4710" clip-path="url(#clip-path-2)">
          <path id="Path_4174" data-name="Path 4174" d="M105.8,46.477v3.087c-.753-.758-1.435-1.458-2.131-2.143a3.437,3.437,0,0,0-3.279-.979,3.357,3.357,0,0,0-2.647,2.423,3.422,3.422,0,0,0,.885,3.574c1.269,1.3,2.561,2.571,3.841,3.857.741.742.74.742.308,1.659a.364.364,0,0,0-.044.088.522.522,0,0,1-.389.482H83.88V56.99q2,0,4.006-.016a3.874,3.874,0,0,0,3.828-3.82q.043-2.453,0-4.907a3.868,3.868,0,0,0-3.2-3.75c-.4-.073-.806-.08-1.259-.12.15-.619.289-1.236.454-1.845.115-.422.157-.813-.244-1.106-.384-.283-.733-.113-1.088.092q-1.249.723-2.5,1.441V40.487a.708.708,0,0,0,.418-.128.875.875,0,0,0,.31-1.043c-.2-.892-.359-1.791-.547-2.755h.6c1.584,0,3.168.016,4.752-.005a3.886,3.886,0,0,0,3.867-3.836c.025-2.955.029-5.772.005-8.727h6.242c1.322,0,2.646-.012,3.968.005a2.11,2.11,0,0,1,2.1,1.566c-2.224,0-4.445,0-6.665,0a3.92,3.92,0,0,0-4.076,4.078q-.008,4.566,0,9.13a3.924,3.924,0,0,0,4.086,4.07c1.8.005,3.592,0,5.389,0h.543c-.2,1.008-.385,1.936-.576,2.863a.816.816,0,0,0,.3.915.769.769,0,0,0,.956-.035,1.478,1.478,0,0,1,.24-.111" transform="translate(-72.898 -20.848)" fill="#29c875"/>
          <path id="Path_4175" data-name="Path 4175" d="M214.217,196.291c0,.063-.012.126-.021.221-.151.009-.292.026-.432.026-2.451,0-4.9-.005-7.35.009a.652.652,0,0,1-.662-.368,6.044,6.044,0,0,1-.182-5.956c.05-.1.1-.2.158-.305.118-.215.264-.412.4-.618a.863.863,0,0,0-.139-1.335q-2.423-2.433-4.852-4.858a1.989,1.989,0,1,1,2.766-2.854q.856.848,1.71,1.7.927.927,1.853,1.858l1.707,1.715c.437.44.856.9,1.3,1.365l1.135-1.155c-.834-.835-1.665-1.688-2.524-2.511a1.112,1.112,0,0,1-.363-.9q.026-2.478,0-4.958a.672.672,0,0,1,.331-.64c.567-.38,1.117-.786,1.7-1.2.8,1.054,1.613,2.057,2.346,3.117a6.216,6.216,0,0,1,1.1,3.556c.02,4.7.01,9.392.012,14.09" transform="translate(-174.226 -152.549)" fill="#29c875"/>
          <path id="Path_4176" data-name="Path 4176" d="M179.7,58.194c0-2.725-.026-5.358.011-7.99a2.3,2.3,0,0,1,2.376-2.194c2.726-.009,5.452,0,8.179,0q3.624,0,7.248,0a2.365,2.365,0,0,1,2.564,2.565q0,3.607,0,7.213v.532l-.824-.551q-1.181-.789-2.362-1.577c-.671-.446-.794-.446-1.451-.007l-3.94,2.632c-.127-.087-.261-.172-.387-.267q-2.606-1.955-5.21-3.912c-.629-.472-.814-.47-1.429-.008L180.128,57.9c-.115.086-.235.164-.429.3m8.62-5.5a3.135,3.135,0,1,0,3.174-3.113,3.149,3.149,0,0,0-3.174,3.113" transform="translate(-156.166 -41.72)" fill="#29c875"/>
          <path id="Path_4177" data-name="Path 4177" d="M102.089,300.189H83.905c0,.71,0,1.363,0,2.016a2.389,2.389,0,0,0,2.65,2.675h16.318a7.961,7.961,0,0,1-.784-4.691m-6.445,3.094H94.136v-1.509h1.507Z" transform="translate(-72.92 -260.888)" fill="#29c875"/>
          <path id="Path_4178" data-name="Path 4178" d="M200.779,114.107a2.353,2.353,0,0,1-2.2,1.506c-1.207.01-2.415-.018-3.623.017a1.868,1.868,0,0,0-.941.3c-1.067.723-2.1,1.49-3.152,2.24-.143.1-.289.2-.507.351.127-.649.234-1.208.344-1.765s-.031-.918-.425-1.063l-.051-.017a.209.209,0,0,0-.041-.012c-.022-.007-.046-.012-.071-.017s-.065-.012-.1-.016-.055-.007-.084-.008H189.9c-.037,0-.075,0-.114,0-2.269,0-4.538,0-6.805,0a2.311,2.311,0,0,1-2.277-1.6.617.617,0,0,1,.12-.539c1.722-1.321,3.46-2.618,5.225-3.943l3.566,2.677.653.49c.488.365.975.731,1.457,1.1a.891.891,0,0,0,1.164.027c1.257-.851,2.527-1.681,3.781-2.535a.512.512,0,0,1,.686-.02q1.59,1.1,3.217,2.148a.473.473,0,0,1,.2.686" transform="translate(-157.033 -95.19)" fill="#29c875"/>
          <path id="Path_4179" data-name="Path 4179" d="M9.855,17.051c-1.257-.9-2.418-1.715-3.562-2.554a1.735,1.735,0,0,0-1.131-.362c-.9.024-1.8.014-2.694.005A2.342,2.342,0,0,1,.048,11.726Q.035,7.063.048,2.4A2.329,2.329,0,0,1,2.435.006q7.006-.012,14.012,0a2.332,2.332,0,0,1,2.411,2.42q.013,4.639,0,9.278a2.341,2.341,0,0,1-2.445,2.437c-1.976.008-3.952,0-5.928,0-.83,0-1.127.365-.967,1.169.108.543.211,1.087.337,1.739m1.985-6.333c.614.307,1.18.594,1.75.874.825.4,1.347.087,1.35-.824q.006-2.111,0-4.221c0-.948-.516-1.264-1.369-.844-.573.283-1.144.57-1.716.856l-.15-.039c1.191-1.7,1.385-3.317-.484-4.553a2.618,2.618,0,0,0-3.33.4,1.592,1.592,0,0,1-.139-.086,2.747,2.747,0,0,0-3.944,3.8.99.99,0,0,1,.149.537c.012,1.358.006,2.716.007,4.074,0,.86.238,1.093,1.113,1.093q2.817,0,5.634,0c.814,0,1.025-.193,1.128-1.067" transform="translate(-0.036 0)" fill="#29c875"/>
          <path id="Path_4180" data-name="Path 4180" d="M12.89,174.576c-.107.45-.2.826-.286,1.2a.8.8,0,0,0,.828,1.078c.506.012,1.013-.008,1.519.006a2.328,2.328,0,0,1,2.3,2.282q.038,2.429,0,4.86a2.294,2.294,0,0,1-2.254,2.27q-6.369.03-12.739,0a2.3,2.3,0,0,1-2.239-2.286q-.033-2.4,0-4.811a2.327,2.327,0,0,1,2.366-2.314c1.96-.013,3.92.012,5.879-.017a2.517,2.517,0,0,0,1.1-.3c1.036-.552,2.045-1.158,3.065-1.74.124-.071.256-.128.462-.231M1.6,183.9H15.649v-1.513H1.6Zm8.578-4.647H1.616v1.514h8.562Zm5.489,0H11.808v1.511h3.858Z" transform="translate(0 -151.721)" fill="#29c875"/>
          <path id="Path_4181" data-name="Path 4181" d="M259.166,75.167a1.569,1.569,0,1,1,1.544-1.577,1.574,1.574,0,0,1-1.544,1.577" transform="translate(-223.857 -62.599)" fill="#29c875"/>
          <path id="Path_4182" data-name="Path 4182" d="M42.008,57.365c-.007-.1-.017-.18-.017-.258,0-.93,0-1.859,0-2.823h4.673v3.082Z" transform="translate(-36.493 -47.176)" fill="#29c875"/>
          <path id="Path_4183" data-name="Path 4183" d="M38.368,25.225a1.173,1.173,0,1,1-1.178-1.182,1.183,1.183,0,0,1,1.178,1.182" transform="translate(-31.306 -20.895)" fill="#29c875"/>
          <path id="Path_4184" data-name="Path 4184" d="M67.149,26.393a1.175,1.175,0,1,1,1.161-1.2,1.183,1.183,0,0,1-1.161,1.2" transform="translate(-57.329 -20.895)" fill="#29c875"/>
          <path id="Path_4185" data-name="Path 4185" d="M91.114,57.835v2.139a11.037,11.037,0,0,1-1.468-.765.418.418,0,0,1,.1-.692c.426-.23.865-.434,1.364-.682" transform="translate(-77.788 -50.263)" fill="#29c875"/>
        </g>
      </g>
    </g>
  </g>
</svg>
