<svg xmlns="http://www.w3.org/2000/svg" xmlns:xlink="http://www.w3.org/1999/xlink" width="68" height="68" viewBox="0 0 68 68">
  <defs>
    <clipPath id="clip-path">
      <path id="Path_4204" data-name="Path 4204" d="M0,0H54V54H0Z" transform="translate(1087 1427)" fill="#f5f5f5"/>
    </clipPath>
    <clipPath id="clip-path-2">
      <rect id="Rectangle_643" data-name="Rectangle 643" width="44" height="44" transform="translate(-0.21 -0.21)" fill="#29c875"/>
    </clipPath>
  </defs>
  <g id="Dynamic_Content" data-name="Dynamic Content" transform="translate(-1050 -1108)">
    <circle id="Ellipse_82" data-name="Ellipse 82" cx="34" cy="34" r="34" transform="translate(1050 1108)" fill="#00cf61" opacity="0.1"/>
    <g id="Dynamic_Content-2" data-name="Dynamic Content" transform="translate(-30 -312)" clip-path="url(#clip-path)">
      <g id="Group_4719" data-name="Group 4719" transform="translate(1092.21 1432.21)">
        <g id="Group_4718" data-name="Group 4718" transform="translate(0 0)" clip-path="url(#clip-path-2)">
          <path id="Path_4206" data-name="Path 4206" d="M21.791,92.283H42.4c.962,0,1.171.207,1.171,1.163,0,.924.012,1.848,0,2.771a3.867,3.867,0,0,1-3.847,3.84c-2.544.022-5.089.006-7.633.006H4.234A3.915,3.915,0,0,1,0,95.822c0-.843,0-1.685,0-2.528,0-.756.26-1.011,1.03-1.011h20.76m0,1.556c-1.767,0-3.533,0-5.3,0-.641,0-.921.282-.93.914-.007.486-.011.972,0,1.458A2.3,2.3,0,0,0,17.82,98.5q3.962.034,7.924,0a2.3,2.3,0,0,0,2.266-2.274c.013-.453.005-.907,0-1.361,0-.765-.258-1.023-1.017-1.024q-2.6,0-5.2,0" transform="translate(0 -56.494)" fill="#29c875"/>
          <path id="Path_4207" data-name="Path 4207" d="M15.348,20.062v3.112h-.516q-2.334,0-4.668,0c-.77,0-1.03.254-1.03,1.01q0,9.5,0,19.008c0,.723.27.986,1.006.987q15.34,0,30.68,0c.727,0,.992-.268.993-1,0-2.235,0-4.47,0-6.742H44.9c.007.151.021.307.021.463q0,4.3,0,8.6a1.588,1.588,0,0,1-1.8,1.787H7.827a1.59,1.59,0,0,1-1.805-1.782q0-11.448,0-22.9a2.346,2.346,0,0,1,2.535-2.55q3.136,0,6.272,0Z" transform="translate(-3.686 -12.281)" fill="#29c875"/>
          <path id="Path_4208" data-name="Path 4208" d="M57.012,23.34V21.785h.471c1.1,0,2.2.006,3.306,0a.78.78,0,0,0,.878-.868q.006-7.244,0-14.487a1.253,1.253,0,0,0-.028-.17H33.68c-.007.163-.021.32-.021.477q0,6.976,0,13.953c0,.864.233,1.1,1.09,1.1,1.426,0,2.852,0,4.317,0v1.523c-.108.01-.232.031-.355.031-1.394,0-2.788.007-4.182,0A2.321,2.321,0,0,1,32.1,20.925Q32.1,11.663,32.1,2.4A2.312,2.312,0,0,1,34.494,0Q47.671,0,60.848,0a2.3,2.3,0,0,1,2.375,2.363q.012,9.309,0,18.62a2.307,2.307,0,0,1-2.339,2.35c-1.276.014-2.553,0-3.871,0M60.092,2.367h-8.5v1.5h8.5ZM35.239,3.862h2.276V2.355H35.239Zm5.412-1.5H38.363V3.851h2.288Zm.81,1.491h2.274V2.36H41.462Z" transform="translate(-19.651 0)" fill="#29c875"/>
          <path id="Path_4209" data-name="Path 4209" d="M82.265,42.375V37.1l3.587-1.439a8.232,8.232,0,0,1,.014,8.167l-3.6-1.457" transform="translate(-50.361 -21.833)" fill="#29c875"/>
          <path id="Path_4210" data-name="Path 4210" d="M54.9,42.182l-3.654,1.474c-1.424-1.8-1.432-6.125.055-8.193.584.281,1.15.595,1.748.83s1.227.393,1.851.587Z" transform="translate(-30.72 -21.71)" fill="#29c875"/>
          <path id="Path_4211" data-name="Path 4211" d="M66.437,44.763V40h4.442a19.742,19.742,0,0,1,0,4.767Z" transform="translate(-40.671 -24.485)" fill="#29c875"/>
          <path id="Path_4212" data-name="Path 4212" d="M70.937,29.9H66.9c.377-1.019.708-1.926,1.053-2.827a2.04,2.04,0,0,1,.279-.454c.51-.7.955-.711,1.447-.014a6.369,6.369,0,0,1,.6,1.107,9.391,9.391,0,0,1,.375,1.1c.1.324.171.655.281,1.087" transform="translate(-40.957 -15.974)" fill="#29c875"/>
          <path id="Path_4213" data-name="Path 4213" d="M67.026,56.371H71.1c-.367,1-.685,1.9-1.023,2.785a2.245,2.245,0,0,1-.335.533c-.491.646-.917.659-1.385.008a4.673,4.673,0,0,1-.583-1.058c-.268-.708-.48-1.436-.752-2.268" transform="translate(-41.032 -34.509)" fill="#29c875"/>
          <path id="Path_4214" data-name="Path 4214" d="M81.688,58.348a8.685,8.685,0,0,1-4.705,2.838,9.8,9.8,0,0,0,1.658-4.1,7.083,7.083,0,0,1,3.047,1.262" transform="translate(-47.128 -34.947)" fill="#29c875"/>
          <path id="Path_4215" data-name="Path 4215" d="M60.1,24.611a9.816,9.816,0,0,0-1.661,4.034A5.8,5.8,0,0,1,55.4,27.44,8.634,8.634,0,0,1,60.1,24.611" transform="translate(-33.917 -15.066)" fill="#29c875"/>
          <path id="Path_4216" data-name="Path 4216" d="M58.4,57.082a9.983,9.983,0,0,0,1.677,4.1,8.615,8.615,0,0,1-4.7-2.849A7.5,7.5,0,0,1,58.4,57.082" transform="translate(-33.898 -34.945)" fill="#29c875"/>
          <path id="Path_4217" data-name="Path 4217" d="M82.126,27.67l-2.925,1.2-1.624-4.088a8.681,8.681,0,0,1,4.548,2.887" transform="translate(-47.492 -15.172)" fill="#29c875"/>
          <rect id="Rectangle_634" data-name="Rectangle 634" width="1.497" height="1.496" transform="translate(8.585 29.603)" fill="#29c875"/>
          <rect id="Rectangle_635" data-name="Rectangle 635" width="1.487" height="1.513" transform="translate(11.711 29.582)" fill="#29c875"/>
          <rect id="Rectangle_636" data-name="Rectangle 636" width="1.504" height="1.495" transform="translate(14.815 29.591)" fill="#29c875"/>
          <rect id="Rectangle_637" data-name="Rectangle 637" width="1.502" height="1.493" transform="translate(17.929 29.592)" fill="#29c875"/>
          <rect id="Rectangle_638" data-name="Rectangle 638" width="1.499" height="1.49" transform="translate(21.043 29.593)" fill="#29c875"/>
          <rect id="Rectangle_639" data-name="Rectangle 639" width="1.513" height="1.492" transform="translate(24.146 29.601)" fill="#29c875"/>
          <rect id="Rectangle_640" data-name="Rectangle 640" width="1.493" height="1.502" transform="translate(27.271 29.596)" fill="#29c875"/>
          <rect id="Rectangle_641" data-name="Rectangle 641" width="1.479" height="1.513" transform="translate(30.384 29.598)" fill="#29c875"/>
          <rect id="Rectangle_642" data-name="Rectangle 642" width="1.513" height="1.492" transform="translate(33.48 29.593)" fill="#29c875"/>
          <path id="Path_4218" data-name="Path 4218" d="M44.14,100.354h9.328a5.858,5.858,0,0,1-.008.854.746.746,0,0,1-.809.68q-3.835.006-7.671,0a.776.776,0,0,1-.84-.854c-.007-.209,0-.418,0-.679" transform="translate(-27.02 -61.435)" fill="#29c875"/>
        </g>
      </g>
    </g>
  </g>
</svg>
