<svg xmlns="http://www.w3.org/2000/svg" xmlns:xlink="http://www.w3.org/1999/xlink" width="68" height="68" viewBox="0 0 68 68">
  <defs>
    <clipPath id="clip-path">
      <path id="Path_4129" data-name="Path 4129" d="M0,0H54V54H0Z" transform="translate(1334 1346)" fill="#f5f5f5"/>
    </clipPath>
    <clipPath id="clip-path-2">
      <rect id="Rectangle_602" data-name="Rectangle 602" width="44" height="42.572" fill="#f34e4e"/>
    </clipPath>
  </defs>
  <g id="Exam_Proctoring" data-name="Exam Proctoring" transform="translate(-1189 -684)">
    <circle id="Ellipse_77" data-name="Ellipse 77" cx="34" cy="34" r="34" transform="translate(1189 684)" fill="#ff0808" opacity="0.1"/>
    <g id="Exam_Proctoring-2" data-name="Exam Proctoring" transform="translate(-138 -655)" clip-path="url(#clip-path)">
      <g id="Group_4694" data-name="Group 4694" transform="translate(1339.019 1352.084)">
        <g id="Group_4693" data-name="Group 4693" transform="translate(0 0)" clip-path="url(#clip-path-2)">
          <path id="Path_4132" data-name="Path 4132" d="M0,19.426c.171-.006.343-.014.514-.014H43.938a25.7,25.7,0,0,1-.033,3.526,2.785,2.785,0,0,1-3,2.335q-6.94.006-13.878,0h-.509c-.057,2.2.968,4.332,3.368,4.382.557.011,1.118-.01,1.675.014a2.2,2.2,0,0,1,2.158,2.043,2.167,2.167,0,0,1-1.582,2.267,3.562,3.562,0,0,1-.932.109q-9.216.011-18.431,0A2.25,2.25,0,0,1,10.3,32.209a2.193,2.193,0,0,1,2.145-2.542c.487-.022.974,0,1.461-.007a3.217,3.217,0,0,0,3.335-2.537c.161-.583.228-1.193.351-1.851H3.379A3.007,3.007,0,0,1,.019,22.923.337.337,0,0,1,0,22.863V19.426m17.562,10.2h8.881a7.514,7.514,0,0,1-1.511-4.33H19.062a7.442,7.442,0,0,1-1.5,4.33m4.468-8.741c-.7,0-1.4-.006-2.1,0a.736.736,0,1,0-.016,1.455q2.078.019,4.158,0a.771.771,0,0,0,.851-.724c.006-.432-.342-.728-.876-.733-.672-.006-1.343,0-2.016,0" transform="translate(0 8.478)" fill="#f34e4e"/>
          <path id="Path_4133" data-name="Path 4133" d="M0,2.379A3.992,3.992,0,0,1,.984.759,3.187,3.187,0,0,1,3.161,0Q22,0,40.838,0A2.96,2.96,0,0,1,44,3.177V26.4H41.07v-.55q0-10.871,0-21.739a2.972,2.972,0,0,0-.043-.553.672.672,0,0,0-.685-.588c-.144-.007-.286,0-.43,0H4.082c-.957,0-1.151.194-1.151,1.154v22.32H0Z" transform="translate(0 0)" fill="#f34e4e"/>
          <path id="Path_4134" data-name="Path 4134" d="M38.244,25.058H3.074V3.09h35.17Zm-6.369-6.572c.33-.306.635-.568.915-.852.562-.568.407-1.149-.362-1.385-.615-.188-1.228-.384-1.851-.539-.31-.078-.391-.224-.389-.533.011-3.193.007-6.386.007-9.579,0-.816-.236-1.052-1.043-1.052H9.218c-.786,0-1.023.237-1.023,1.024q0,6.657,0,13.318c0,.8.244,1.047,1.053,1.047H17.54c2.649,0,5.3,0,7.947-.007a.4.4,0,0,1,.473.349c.174.648.366,1.29.568,1.931a.742.742,0,0,0,1.343.345c.315-.306.606-.634.938-.983.582.589,1.1,1.122,1.625,1.647.494.494.852.49,1.355-.009q.884-.877,1.761-1.761c.483-.49.481-.825-.013-1.32-.524-.527-1.057-1.046-1.662-1.642" transform="translate(1.343 1.35)" fill="#f34e4e"/>
          <path id="Path_4135" data-name="Path 4135" d="M26.691,13.134c-.986-.3-1.941-.585-2.9-.871-.164-.049-.328-.1-.5-.134-.649-.145-1.088.282-.912.925.269.977.573,1.944.861,2.915.045.149.082.3.129.477H7.674V7.673H26.691ZM12.808,10.617c-.93,0-1.859,0-2.789,0-.619,0-.9.264-.9.879q-.017,1.308,0,2.618A.779.779,0,0,0,9.987,15q2.789.017,5.578,0c.6,0,.859-.283.864-.874q.009-1.308,0-2.618c0-.651-.249-.888-.918-.889-.9,0-1.8,0-2.7,0" transform="translate(3.352 3.352)" fill="#f34e4e"/>
          <rect id="Rectangle_600" data-name="Rectangle 600" width="19.026" height="2.165" transform="translate(11.022 7.375)" fill="#f34e4e"/>
          <path id="Path_4136" data-name="Path 4136" d="M25.132,16.866l-1.072,1.08c-.445-.457-.882-.909-1.325-1.356-.7-.708-1.141-.708-1.848-.011-.08.079-.167.151-.3.272-.486-1.618-.96-3.194-1.457-4.852L24,13.453c-.181.187-.323.332-.464.481a.848.848,0,0,0-.007,1.349c.517.533,1.057,1.043,1.606,1.582" transform="translate(8.357 5.241)" fill="#f34e4e"/>
          <rect id="Rectangle_601" data-name="Rectangle 601" width="4.365" height="1.432" transform="translate(13.948 15.441)" fill="#f34e4e"/>
        </g>
      </g>
    </g>
  </g>
</svg>
