<svg xmlns="http://www.w3.org/2000/svg" xmlns:xlink="http://www.w3.org/1999/xlink" width="68" height="68" viewBox="0 0 68 68">
  <defs>
    <clipPath id="clip-path">
      <path id="Path_4127" data-name="Path 4127" d="M0,0H54V54H0Z" transform="translate(1300 1231)" fill="#f5f5f5"/>
    </clipPath>
  </defs>
  <g id="Face_Recognition" data-name="Face Recognition" transform="translate(-888 -1196)">
    <circle id="Ellipse_89" data-name="Ellipse 89" cx="34" cy="34" r="34" transform="translate(888 1196)" fill="#ffad08" opacity="0.1"/>
    <g id="Face_Recognition-2" data-name="Face Recognition" transform="translate(-405 -28)" clip-path="url(#clip-path)">
      <g id="Group_4692" data-name="Group 4692" transform="translate(-179.045 43.179)">
        <path id="Path_4115" data-name="Path 4115" d="M362.44,46.773a1.9,1.9,0,0,1,.686.137h0a2.251,2.251,0,0,1,1.5,2.14c.01,1.229,0,2.459,0,3.687q0,13.828.009,27.656a2.639,2.639,0,0,1-1.3,2.431c-1.324.845-2.618,1.736-3.975,2.641V78.578c.625,0,1.262.006,1.9,0a3.348,3.348,0,0,0,.763-.074,1.457,1.457,0,0,0,1.073-1.3c.01-.128.01-.257.01-.386q0-11.877,0-23.754a1.526,1.526,0,0,0-1.136-1.691,2.244,2.244,0,0,0-.551-.052q-11.17,0-22.339,0a1.554,1.554,0,0,0-1.714,1.787c.143,7.9.115,15.791,0,23.689a1.568,1.568,0,0,0,1.755,1.784h2v6.863a3.482,3.482,0,0,1-.464-.3,19.77,19.77,0,0,0-3.342-2.236,2.464,2.464,0,0,1-1.454-2.323q.008-15.693,0-31.387a2.3,2.3,0,0,1,1.462-2.273,1.694,1.694,0,0,1,.7-.147h6.452c.453.905.9,1.815,1.37,2.712a.572.572,0,0,0,.385.3c2.671.018,5.343.015,8.015.008a.414.414,0,0,0,.319-.139c.479-.953.939-1.917,1.4-2.877Zm-24.32,3.014a.743.743,0,1,0-.749-.763.755.755,0,0,0,.749.763m3.785-.761a.747.747,0,1,0-.74.762.732.732,0,0,0,.74-.762" transform="translate(1163.364 1146)" fill="#ffad08"/>
        <path id="Path_4116" data-name="Path 4116" d="M324.15,58.292c.127-.757.22-1.52.386-2.268a14.867,14.867,0,0,1,2.819-5.945l1.5-1.927a13.5,13.5,0,0,0,8.89,1.96v9.092a.765.765,0,0,1-.155.03c-1.714,0-3.429.012-5.143,0a1.5,1.5,0,0,1-.024-3.009c.356-.014.714-.005,1.071-.006h.465V54.765c-1.815-.244-3.581-.065-4.374,2.062a.478.478,0,0,1-.3.243,4.511,4.511,0,0,0-3.62,4.617c0,.17,0,.341,0,.5-.714.265-.767.262-1.006-.385-.205-.558-.346-1.139-.515-1.709a5.306,5.306,0,0,1,0-1.8" transform="translate(1159.928 1146.402)" fill="#ffad08"/>
        <path id="Path_4117" data-name="Path 4117" d="M352.006,46.773c-.209.406-.429.806-.621,1.219a.462.462,0,0,1-.487.31q-2.976-.017-5.954,0a.453.453,0,0,1-.5-.294c-.179-.417-.391-.821-.59-1.232Z" transform="translate(1165.695 1146)" fill="#ffad08"/>
        <path id="Path_4118" data-name="Path 4118" d="M324.146,61.45a1.636,1.636,0,0,1,1.235-1.17,1.384,1.384,0,0,1,.266,0v2.983a1.606,1.606,0,0,1-1.5-1.125,1.081,1.081,0,0,1,0-.686" transform="translate(1159.933 1149.935)" fill="#ffad08"/>
        <path id="Path_4119" data-name="Path 4119" d="M360.893,75.659H338.225V51.492h22.668Zm-13.484-22.9c-.967.575-1.936,1.075-2.823,1.692a8,8,0,0,0-2.855,9.367.7.7,0,0,1-.085.732,2.236,2.236,0,0,0,1.412,3.5,10.519,10.519,0,0,0,1.173.094c.017.106.039.216.049.327a4.409,4.409,0,0,0,3.589,4.055,11.681,11.681,0,0,0,3.07.048,4.113,4.113,0,0,0,3.4-2.424,14.208,14.208,0,0,0,.648-2.039c.155,0,.409.013.663,0a2.2,2.2,0,0,0,2.024-1.351,2.107,2.107,0,0,0-.34-2.362c-.2-.232-.124-.386-.03-.6a6.614,6.614,0,0,0-5.137-9.235c-.705-.1-1.43-.063-2.13-.185a4.52,4.52,0,0,1-2.629-1.614M359.371,53h-4.487v1.51H357.9v2.979h1.47Zm0,21.147V69.649h-1.51V72.67H354.88v1.474ZM339.744,52.984V57.47h1.5V54.462h2.966V52.984Zm4.475,21.157V72.649h-3V69.658h-1.474V74.14Z" transform="translate(1164.053 1147.375)" fill="#ffad08"/>
        <path id="Path_4120" data-name="Path 4120" d="M343.72,83.492H327.134c-.021-.026-.054-.048-.053-.07a26.672,26.672,0,0,1,.232-5.677,8.31,8.31,0,0,1,9.246-6.258c.3.043.372.158.363.435-.018.527-.008,1.056-.005,1.585a3.7,3.7,0,0,0,1.716,3.221q2.379,1.606,4.777,3.18a.607.607,0,0,1,.316.588c-.017.984-.007,1.969-.007,3" transform="translate(1160.795 1153.178)" fill="#ffad08"/>
        <path id="Path_4121" data-name="Path 4121" d="M337.064,58.407v9.082H331.84a3.836,3.836,0,0,0,5.228,4.259v2.623c-2.15-.1-4.324.056-6.279-1.109a8.208,8.208,0,0,1-4.3-7.191c-.063-2.285-.026-4.572-.01-6.858a2.942,2.942,0,0,1,2.365-2.973,9.133,9.133,0,0,0,.528.929,2.961,2.961,0,0,0,2.511,1.237c1.557.006,3.115,0,4.673,0h.506m-3.057,5.272a3.124,3.124,0,0,0-1.373-3.295,2.912,2.912,0,0,0-3.309.063,3.075,3.075,0,0,0-1.268,3.22h1.465c0-.276-.009-.518,0-.758a1.5,1.5,0,0,1,1.517-1.48,1.521,1.521,0,0,1,1.5,1.506c.009.24,0,.479,0,.744Z" transform="translate(1160.623 1148.759)" fill="#ffad08"/>
        <path id="Path_4122" data-name="Path 4122" d="M356.256,78.93h-15.1V71.424h15.1Zm-7.581-2.242c1.471,0,2.942.005,4.413,0,.644,0,.9-.276.909-.92,0-.415.005-.828,0-1.242-.008-.564-.28-.864-.834-.865q-4.456-.012-8.912,0c-.555,0-.829.289-.847.858-.013.4-.006.8,0,1.2.008.723.257.971.991.972,1.428,0,2.857,0,4.285,0" transform="translate(1164.907 1153.185)" fill="#ffad08"/>
        <path id="Path_4123" data-name="Path 4123" d="M349.266,59.8V58.35a2.4,2.4,0,0,0-2.8,1.255.668.668,0,0,1-.362.3,3.755,3.755,0,0,0-2.7,2.62c-.075.238-.167.333-.409.307a3.967,3.967,0,0,1-.513-.012.493.493,0,0,1-.327-.225,6.513,6.513,0,0,1,2.54-7.83c.023-.015.048-.032.072-.046.42-.242.829-.644,1.266-.677.385-.028.8.349,1.2.557a6.335,6.335,0,0,0,2.894.661,5.11,5.11,0,0,1,5.208,4.773,4.574,4.574,0,0,1-.522,2.567.6.6,0,0,1-.474.213c-.252-.008-.559.172-.745-.205a2.262,2.262,0,0,0-2.225-1.307c-.9.006-1.8,0-2.7,0-.542,0-.865-.274-.881-.722-.017-.464.316-.765.87-.781.2-.006.394,0,.611,0" transform="translate(1165.073 1148.119)" fill="#ffad08"/>
        <path id="Path_4124" data-name="Path 4124" d="M345.747,59.759a2.5,2.5,0,0,0,2.633,1.413c.8-.037,1.6-.012,2.4-.005.57,0,.849.266.852.834.009,1.255.027,2.513-.008,3.769a2.979,2.979,0,0,1-3.035,2.955c-.5.005-1,.006-1.5,0a3.013,3.013,0,0,1-3.019-2.983c-.023-1.285-.019-2.57,0-3.854a2.181,2.181,0,0,1,1.676-2.127" transform="translate(1165.752 1149.785)" fill="#ffad08"/>
        <path id="Path_4125" data-name="Path 4125" d="M351.116,63.536V62.042c.475,0,.97-.174,1.337.287a.676.676,0,0,1,.037.837c-.345.536-.878.309-1.374.371" transform="translate(1167.811 1150.441)" fill="#ffad08"/>
        <path id="Path_4126" data-name="Path 4126" d="M343.2,62.016v1.5c-.491-.028-1.032.182-1.337-.337a.945.945,0,0,1-.022-.79c.285-.545.841-.329,1.359-.377" transform="translate(1165.085 1150.442)" fill="#ffad08"/>
      </g>
    </g>
  </g>
</svg>
