<svg xmlns="http://www.w3.org/2000/svg" xmlns:xlink="http://www.w3.org/1999/xlink" width="68" height="68" viewBox="0 0 68 68">
  <defs>
    <clipPath id="clip-path">
      <path id="Path_4200" data-name="Path 4200" d="M0,0H54V54H0Z" transform="translate(1265 1435)" fill="#f5f5f5"/>
    </clipPath>
    <clipPath id="clip-path-2">
      <rect id="Rectangle_632" data-name="Rectangle 632" width="44.945" height="39.842" fill="#29c875"/>
    </clipPath>
  </defs>
  <g id="GPS" transform="translate(-972 -1108)">
    <circle id="Ellipse_84" data-name="Ellipse 84" cx="34" cy="34" r="34" transform="translate(972 1108)" fill="#00cf61" opacity="0.1"/>
    <g id="GPS-2" data-name="GPS" transform="translate(-286 -320)" clip-path="url(#clip-path)">
      <g id="Group_4715" data-name="Group 4715" transform="translate(1269.528 1442.354)">
        <g id="Group_4714" data-name="Group 4714" clip-path="url(#clip-path-2)">
          <path id="Path_4195" data-name="Path 4195" d="M0,159.237q.746-2.563,1.491-5.126c.428-1.485.849-2.972,1.288-4.512l4.584.837v10.625H6.9c-1.667,0-3.335-.019-5,.007A1.744,1.744,0,0,1,0,159.852v-.615" transform="translate(0 -121.226)" fill="#29c875"/>
          <path id="Path_4196" data-name="Path 4196" d="M76.374,0A9.925,9.925,0,0,1,86.35,10.922,17.838,17.838,0,0,1,83.69,18.19a34.15,34.15,0,0,1-5.963,7.22,1.511,1.511,0,0,1-2.3.017,31.348,31.348,0,0,1-7.242-9.615,13.187,13.187,0,0,1-1.374-7.184A9.822,9.822,0,0,1,75.072.138c.491-.073.988-.105,1.3-.138M79.116,9.86a2.547,2.547,0,1,0-2.539,2.558A2.58,2.58,0,0,0,79.116,9.86" transform="translate(-54.08 0)" fill="#29c875"/>
          <path id="Path_4197" data-name="Path 4197" d="M17.76,113.693c.462-1.61.9-3.171,1.363-4.725a1.5,1.5,0,0,1,1.56-1.107q3.886-.018,7.772.009a.714.714,0,0,1,.459.314,38.068,38.068,0,0,0,5.35,6.148,3.606,3.606,0,0,0,5.233,0,36.3,36.3,0,0,0,5.286-6.085.79.79,0,0,1,.743-.4c2.43.018,4.859.009,7.289.009a1.667,1.667,0,0,1,1.929,1.446c.314,1.1.617,2.194.945,3.285a.469.469,0,0,1-.169.593q-3.567,2.92-7.112,5.867a.733.733,0,0,1-.676.164Q38.978,117.6,30.221,116L18.1,113.784c-.1-.018-.194-.052-.339-.091" transform="translate(-14.392 -87.393)" fill="#29c875"/>
          <path id="Path_4198" data-name="Path 4198" d="M50.207,166.305V156.1l22.069,4.04c-.127.121-.213.212-.307.292q-3.378,2.838-6.763,5.668a.992.992,0,0,1-.584.22q-7.025.018-14.051.009c-.114,0-.227-.015-.364-.024" transform="translate(-40.685 -126.496)" fill="#29c875"/>
          <path id="Path_4199" data-name="Path 4199" d="M160.169,146.067c.321,1.116.625,2.164.924,3.213q.956,3.35,1.907,6.7a1.559,1.559,0,0,1-1.668,2.216q-7.572,0-15.145,0h-.306l-.058-.085,14.346-12.047" transform="translate(-118.166 -118.364)" fill="#29c875"/>
        </g>
      </g>
    </g>
  </g>
</svg>
