<svg xmlns="http://www.w3.org/2000/svg" xmlns:xlink="http://www.w3.org/1999/xlink" width="68" height="68" viewBox="0 0 68 68">
  <defs>
    <clipPath id="clip-path">
      <path id="Path_4149" data-name="Path 4149" d="M0,0H54V54H0Z" transform="translate(1248 1309)" fill="#f5f5f5"/>
    </clipPath>
  </defs>
  <g id="Management_App" data-name="Management App" transform="translate(-1219 -720)">
    <circle id="Ellipse_18" data-name="Ellipse 18" cx="34" cy="34" r="34" transform="translate(1219 720)" fill="#08abff" opacity="0.1"/>
    <g id="Management_App-2" data-name="Management App" transform="translate(-22 -582)" clip-path="url(#clip-path)">
      <g id="Group_4695" data-name="Group 4695" transform="translate(86.508 166.001)">
        <path id="Path_4138" data-name="Path 4138" d="M35.888,7.924v3.308L34.36,11.7V9.476H18.882v10.8h8.53c-.323,6.284,2.529,10.3,8.468,12.234v1.7H17.322V7.924ZM25.8,21.871H18.884v1.5H25.8Zm-.007,3.1H18.885v1.511H25.8Zm.008,3.1H18.885v1.493H25.8ZM18.869,32.66h6.919V31.165H18.869Z" transform="translate(1163.907 1148.931)" fill="#35aee3"/>
        <path id="Path_4139" data-name="Path 4139" d="M15.051,38.141V5.663H39.807v6.171H38.3V7.195H16.622V36.6H38.277V33.53h1.537v4.611Z" transform="translate(1163.067 1148.095)" fill="#35aee3"/>
        <path id="Path_4140" data-name="Path 4140" d="M43.363,24.738A4.113,4.113,0,0,0,40.1,22.212c-.9-.178-1.777-.444-2.741-.69A1.9,1.9,0,0,1,37.6,21.2a3.5,3.5,0,0,0,1.319-2.5,11.661,11.661,0,0,0-.142-3.023,3.731,3.731,0,0,0-3.851-2.825,3.878,3.878,0,0,0-3.589,3.189,12.348,12.348,0,0,0-.071,2.6,3.593,3.593,0,0,0,1.33,2.548,2.716,2.716,0,0,1,.255.325c-.478.125-.888.234-1.3.338-.532.133-1.063.266-1.595.393a4.062,4.062,0,0,0-3.134,2.463,9.155,9.155,0,0,1,2.03-11.016,9.346,9.346,0,0,1,12.3-.166,9.181,9.181,0,0,1,2.21,11.212" transform="translate(1167.039 1150.179)" fill="#35aee3"/>
        <path id="Path_4141" data-name="Path 4141" d="M36.8,16.665c0,.226,0,.452,0,.678a2.225,2.225,0,0,1-1.164,2.085.685.685,0,0,0-.395.729,12.081,12.081,0,0,1,0,1.355c-.014.292.074.419.375.489,1.3.3,2.595.637,3.889.964a2.383,2.383,0,0,1,1.934,2.752.775.775,0,0,1-.205.408,9.276,9.276,0,0,1-13.5.032,1.379,1.379,0,0,1-.178-1.364,2.3,2.3,0,0,1,1.9-1.833c1.284-.308,2.558-.649,3.842-.949.31-.073.448-.186.41-.51a2.744,2.744,0,0,1,0-.581,1.575,1.575,0,0,0-.777-1.8,1.793,1.793,0,0,1-.775-1.638c0-.5-.005-1,0-1.5a2.377,2.377,0,0,1,2.367-2.419A2.308,2.308,0,0,1,36.8,15.987c0,.226,0,.452,0,.678" transform="translate(1167.657 1151.015)" fill="#35aee3"/>
        <path id="Path_4142" data-name="Path 4142" d="M15.05,5.721c0-.868-.034-1.708.008-2.542A2.276,2.276,0,0,1,17.3,1.112c1.97-.011,3.938,0,5.908,0q7.071,0,14.14,0a2.309,2.309,0,0,1,2.5,2.5c0,.693,0,1.385,0,2.114ZM28.971,2.684H22.828v1.5h6.144Zm3.105.005H30.584V4.181h1.493Z" transform="translate(1163.062 1146.409)" fill="#35aee3"/>
        <path id="Path_4143" data-name="Path 4143" d="M15.043,30.55H39.829c0,.907.066,1.8-.016,2.673a2.247,2.247,0,0,1-2.245,1.948q-10.122.008-20.241,0a2.288,2.288,0,0,1-2.282-2.278c-.008-.771,0-1.542,0-2.342m9.329,3.042h6.136V32.082H24.371Zm-6.207.005h1.5v-1.5h-1.5Zm17.058,0H36.71V32.1H35.222Z" transform="translate(1163.063 1157.3)" fill="#35aee3"/>
        <path id="Path_4144" data-name="Path 4144" d="M19.595,10.17h12.36c0,.444.011.889-.008,1.332a.393.393,0,0,1-.185.249,11.032,11.032,0,0,0-4.756,6.082.382.382,0,0,1-.032.058H19.595Z" transform="translate(1164.748 1149.762)" fill="#35aee3"/>
        <path id="Path_4145" data-name="Path 4145" d="M13.348,27.17c-.125-.473-.244-.97-.389-1.46a.928.928,0,0,0-1.392-.553c-.427.253-.855.51-1.244.742L7.854,23.44c.258-.429.534-.881.8-1.34A.981.981,0,0,0,8.1,20.8c-.467-.122-.934-.242-1.4-.366a1.026,1.026,0,0,1-.137-.062V16.959c.533-.136,1.06-.267,1.585-.405a1.029,1.029,0,0,0,.529-1.248c-.271-.474-.559-.94-.819-1.377l2.463-2.464c.419.251.873.527,1.33.795a.976.976,0,0,0,1.3-.541c.132-.512.263-1.025.4-1.545h3.242v3.29A5.376,5.376,0,0,0,11,15.139a5.2,5.2,0,0,0-1.332,3.875,5.474,5.474,0,0,0,6.922,4.9V27.17Z" transform="translate(1159.928 1149.763)" fill="#35aee3"/>
        <path id="Path_4146" data-name="Path 4146" d="M15.381,17.441c0,1.064-.01,2.129.007,3.192a.41.41,0,0,1-.338.479,3.73,3.73,0,0,1-4.06-1.063,3.632,3.632,0,0,1-.718-4.127,3.713,3.713,0,0,1,3.466-2.363c.114-.005.226,0,.34,0,1.163.041,1.3.184,1.3,1.318v2.563" transform="translate(1161.172 1151.014)" fill="#35aee3"/>
        <path id="Path_4147" data-name="Path 4147" d="M36.967,2.248h1.547v.514c0,1.793.005,3.585-.005,5.377a.565.565,0,0,0,.34.6A2.263,2.263,0,0,1,40,11.316a2.33,2.33,0,0,1-4.521.005,2.261,2.261,0,0,1,1.147-2.581.568.568,0,0,0,.347-.6c-.014-1.777-.007-3.552-.007-5.329Z" transform="translate(1170.596 1146.832)" fill="#35aee3"/>
        <path id="Path_4148" data-name="Path 4148" d="M12.484,35.7H10.937v-.542c0-1.777-.005-3.553,0-5.329a.563.563,0,0,0-.332-.607,2.254,2.254,0,0,1-1.163-2.571,2.33,2.33,0,0,1,4.521-.021,2.263,2.263,0,0,1-1.137,2.585.6.6,0,0,0-.352.641c.011,1.759.005,3.519.005,5.279V35.7" transform="translate(1160.968 1155.2)" fill="#35aee3"/>
        <rect id="Rectangle_603" data-name="Rectangle 603" width="1.486" height="1.49" transform="translate(1207.599 1145.999)" fill="#35aee3"/>
        <rect id="Rectangle_604" data-name="Rectangle 604" width="1.497" height="1.489" transform="translate(1171.925 1192.51)" fill="#35aee3"/>
      </g>
    </g>
  </g>
</svg>
