<svg xmlns="http://www.w3.org/2000/svg" xmlns:xlink="http://www.w3.org/1999/xlink" width="68" height="68" viewBox="0 0 68 68">
  <defs>
    <clipPath id="clip-path">
      <path id="Path_4194" data-name="Path 4194" d="M0,0H54V54H0Z" transform="translate(936 1372)" fill="#f5f5f5"/>
    </clipPath>
    <clipPath id="clip-path-2">
      <rect id="Rectangle_631" data-name="Rectangle 631" width="48" height="36.069" fill="#35aee3"/>
    </clipPath>
  </defs>
  <g id="Online_Assignment" data-name="Online Assignment" transform="translate(-1219 -809)">
    <circle id="Ellipse_75" data-name="Ellipse 75" cx="34" cy="34" r="34" transform="translate(1219 809)" fill="#08abff" opacity="0.1"/>
    <g id="Online_Assignment-2" data-name="Online Assignment" transform="translate(290 -556)" clip-path="url(#clip-path)">
      <g id="Group_4713" data-name="Group 4713" transform="translate(939 1381)">
        <g id="Group_4712" data-name="Group 4712" clip-path="url(#clip-path-2)">
          <path id="Path_4187" data-name="Path 4187" d="M23.984,36.065H2.062A2.029,2.029,0,0,1,.407,32.832Q2.32,30.291,4.249,27.76a.382.382,0,0,0,.094-.381,1.007,1.007,0,0,1-.02-.3q0-12.665,0-25.329A1.668,1.668,0,0,1,5.713.024,1.459,1.459,0,0,1,5.99,0h18.8L38.526,0h3.661a1.675,1.675,0,0,1,1.774,1.786q0,3.965,0,7.93,0,6.834,0,13.668c0,1.22,0,2.441,0,3.661a2.152,2.152,0,0,1-.1.639.314.314,0,0,0,.06.333q1.19,1.554,2.375,3.113c.428.562.878,1.11,1.28,1.691a1.978,1.978,0,0,1,.21,2.106,1.892,1.892,0,0,1-1.764,1.133c-2.037.016-4.074,0-6.111,0H23.984M42.23,1.709H6.037v25.4H42.23ZM18.936,31.078h8.649V29.647H18.936Z" transform="translate(0)" fill="#35aee3"/>
          <path id="Path_4188" data-name="Path 4188" d="M34.513,21.282a12.334,12.334,0,0,1-.016-1.528,1.827,1.827,0,0,1,1.86-1.73,2.619,2.619,0,0,1,1.605.374,1.678,1.678,0,0,1,.731,1.266,4.171,4.171,0,0,1-.024,1.6c.331.049.4.151.257.457a3.581,3.581,0,0,1-.311.515c-.036.053-.115.123-.163.115-.226-.037-.263.127-.331.272a2.247,2.247,0,0,0-.232,1.532.628.628,0,0,0,.479.5,4.65,4.65,0,0,1,2.054,1.14,2.318,2.318,0,0,1,.683,1.246c.067.363-.039.494-.408.494q-4,0-8,0c-.361,0-.481-.13-.453-.483a2.076,2.076,0,0,1,.853-1.44,4.914,4.914,0,0,1,1.7-.887.981.981,0,0,0,.759-1.173c-.046-.458-.388-.77-.564-1.164a.092.092,0,0,0-.078-.034.315.315,0,0,1-.361-.148,6.559,6.559,0,0,1-.337-.727c-.05-.138.047-.214.2-.2a.468.468,0,0,0,.094,0" transform="translate(-23.733 -13.261)" fill="#35aee3"/>
          <path id="Path_4189" data-name="Path 4189" d="M119.285,24.17a4.321,4.321,0,1,1-1.655-2.418c-.11.155-.22.312-.332.468s-.219.3-.334.456a3.249,3.249,0,0,0-1.847-.592,3.174,3.174,0,1,0,3.1,2.555c-.026-.131-.024-.194.129-.227.31-.066.614-.157.936-.241" transform="translate(-81.545 -15.412)" fill="#35aee3"/>
          <path id="Path_4190" data-name="Path 4190" d="M118.2,62.892l1.079-.3a4.319,4.319,0,0,1-7.7,3.6,4.32,4.32,0,0,1,6.035-6.019c-.175.252-.359.5-.522.758-.095.151-.169.15-.312.058a3.176,3.176,0,1,0,1.417,3.421A3.061,3.061,0,0,0,118.2,63a.626.626,0,0,1-.006-.112" transform="translate(-81.539 -43.694)" fill="#35aee3"/>
          <path id="Path_4191" data-name="Path 4191" d="M31.9,68.122H48.594v1.146H32.77c-.217,0-.434,0-.652,0-.152,0-.228-.04-.221-.211.011-.3,0-.6,0-.936" transform="translate(-23.478 -50.143)" fill="#35aee3"/>
          <rect id="Rectangle_628" data-name="Rectangle 628" width="12.377" height="1.117" transform="translate(8.354 20.781)" fill="#35aee3"/>
          <path id="Path_4192" data-name="Path 4192" d="M126.2,23.051l-4.75,4.4-2.4-2.414.791-.781,1.605,1.627,3.973-3.675.781.847" transform="translate(-87.626 -16.344)" fill="#35aee3"/>
          <path id="Path_4193" data-name="Path 4193" d="M118.96,63.5l.8-.8,1.607,1.652,3.987-3.692.781.837L121.374,65.9l-2.414-2.4" transform="translate(-87.563 -44.65)" fill="#35aee3"/>
          <rect id="Rectangle_629" data-name="Rectangle 629" width="7.877" height="1.128" transform="translate(17.235 7.534)" fill="#35aee3"/>
          <rect id="Rectangle_630" data-name="Rectangle 630" width="3.092" height="1.133" transform="translate(17.637 10.329)" fill="#35aee3"/>
        </g>
      </g>
    </g>
  </g>
</svg>
