<svg xmlns="http://www.w3.org/2000/svg" xmlns:xlink="http://www.w3.org/1999/xlink" width="68" height="68" viewBox="0 0 68 68">
  <defs>
    <clipPath id="clip-path">
      <path id="Path_4276" data-name="Path 4276" d="M0,0H54V54H0Z" transform="translate(1191 1578)" fill="#f5f5f5"/>
    </clipPath>
    <clipPath id="clip-path-2">
      <rect id="Rectangle_659" data-name="Rectangle 659" width="44" height="44.118" fill="#ffad08"/>
    </clipPath>
  </defs>
  <g id="QR_Code" data-name="QR Code" transform="translate(-966 -1196)">
    <circle id="Ellipse_88" data-name="Ellipse 88" cx="34" cy="34" r="34" transform="translate(966 1196)" fill="#ffad08" opacity="0.1"/>
    <g id="QR_Code-2" data-name="QR Code" transform="translate(-218 -375)" clip-path="url(#clip-path)">
      <g id="Group_4729" data-name="Group 4729" transform="translate(1195.951 1582.956)">
        <g id="Group_4728" data-name="Group 4728" clip-path="url(#clip-path-2)">
          <path id="Path_4277" data-name="Path 4277" d="M263.858,283.749a1.253,1.253,0,0,0-.137-.089,1.29,1.29,0,0,1,.559-2.491q4.607-.006,9.215,0h.549v-.549q0-4.177,0-8.354a1.315,1.315,0,0,1,1.117-1.452,1.259,1.259,0,0,1,1.454,1.268c.015,1.335.005,2.67.005,4,0,2-.024,3.991.012,5.985a1.572,1.572,0,0,1-.973,1.679Z" transform="translate(-232.635 -239.631)" fill="#ffad08"/>
          <path id="Path_4278" data-name="Path 4278" d="M.981,277.744A1.571,1.571,0,0,1,0,276.072c.029-3.516.015-7.033.01-10.549a1.453,1.453,0,0,1,.361-1.11,1.236,1.236,0,0,1,1.264-.346,1.189,1.189,0,0,1,.9.945,3.1,3.1,0,0,1,.051.641q0,4.478,0,8.956v.554h.5q4.155,0,8.31,0a2.332,2.332,0,0,1,.677.081,1.191,1.191,0,0,1,.869,1.069,1.232,1.232,0,0,1-.614,1.239c-.105.068-.217.126-.325.189Z" transform="translate(0 -233.626)" fill="#ffad08"/>
          <path id="Path_4279" data-name="Path 4279" d="M194.865,182.4c0,.589,0,1.1,0,1.621a1.323,1.323,0,0,1-1.284,1.472,1.306,1.306,0,0,1-1.3-1.454c0-.528,0-1.056,0-1.61h-9.7V185.7h.494q2.929,0,5.858,0c1.1,0,1.571.473,1.573,1.573,0,.629,0,1.259,0,1.934.2.009.367.023.533.024q2.778,0,5.556,0a1.345,1.345,0,0,1,1.54,1.524q0,2.864,0,5.729a1.333,1.333,0,0,1-1.488,1.49q-5.319,0-10.639,0a1.293,1.293,0,1,1-.045-2.573q4.5,0,9,0h.553v-3.6h-.432q-2.843,0-5.686,0a1.3,1.3,0,0,1-1.466-1.454c-.006-.672,0-1.344,0-2.044h-5.356v2.488c.667,0,1.323-.012,1.978,0a1.306,1.306,0,0,1,1.344,1.044,1.274,1.274,0,0,1-1.242,1.52c-.685.022-1.372,0-2.11,0,0,1.016,0,1.987,0,2.958a2.787,2.787,0,0,1-.029.557,1.283,1.283,0,0,1-1.307,1.027,1.3,1.3,0,0,1-1.234-1.166,3.419,3.419,0,0,1-.008-.387q0-7.473,0-14.946c0-1.093.483-1.58,1.572-1.58q7.516,0,15.032,0a2.462,2.462,0,0,1,.554.051,1.274,1.274,0,0,1-.24,2.52c-.657.018-1.314,0-2.024,0" transform="translate(-159.255 -159.125)" fill="#ffad08"/>
          <path id="Path_4280" data-name="Path 4280" d="M57.767,229.063q0,2.563,0,5.125a1.325,1.325,0,0,1-1.511,1.5q-4.975,0-9.949,0a1.342,1.342,0,0,1-1.528-1.535q0-5.082,0-10.165c0-1.064.489-1.541,1.563-1.542h9.906c1.038,0,1.518.484,1.519,1.533q0,2.541,0,5.082m-4.823.024c0-.345.012-.69,0-1.034a.659.659,0,0,0-.708-.7c-.631-.014-1.264-.012-1.9,0a.661.661,0,0,0-.731.682c-.024.688-.023,1.378,0,2.067a.653.653,0,0,0,.69.678q.969.027,1.938,0a.662.662,0,0,0,.7-.7c.014-.33,0-.66,0-.991" transform="translate(-39.622 -196.843)" fill="#ffad08"/>
          <path id="Path_4281" data-name="Path 4281" d="M237.866,51.2q0,2.563,0,5.126a1.331,1.331,0,0,1-1.5,1.515q-5,0-9.993,0a1.325,1.325,0,0,1-1.508-1.5q0-5.1,0-10.208a1.323,1.323,0,0,1,1.5-1.514q5,0,9.993,0a1.326,1.326,0,0,1,1.512,1.5q0,2.541,0,5.083m-8.177.085h0q0,.451,0,.9c0,.029,0,.057,0,.086a.679.679,0,0,0,.69.723q.987.03,1.975,0a.663.663,0,0,0,.683-.685q.027-1.03,0-2.061a.659.659,0,0,0-.687-.677q-.987-.024-1.975,0a.659.659,0,0,0-.681.682c-.016.343,0,.687,0,1.031" transform="translate(-198.981 -39.483)" fill="#ffad08"/>
          <path id="Path_4282" data-name="Path 4282" d="M57.765,51.228q0,2.541,0,5.082c0,1.055-.472,1.534-1.512,1.535q-5,0-9.991,0a1.315,1.315,0,0,1-1.485-1.483q-.006-5.125,0-10.25a1.315,1.315,0,0,1,1.477-1.491q5.017,0,10.034,0A1.3,1.3,0,0,1,57.764,46.1q0,2.562,0,5.125m-4.822.035h0q0-.452,0-.9c0-.029,0-.057,0-.086-.021-.48-.236-.737-.7-.753-.645-.022-1.292-.022-1.937,0a.657.657,0,0,0-.7.71c-.02.674-.021,1.349,0,2.023a.652.652,0,0,0,.723.682q.947.015,1.894,0a.658.658,0,0,0,.72-.725c.011-.315,0-.631,0-.947" transform="translate(-39.62 -39.481)" fill="#ffad08"/>
          <path id="Path_4283" data-name="Path 4283" d="M2.753,2.614v.574q0,4.112,0,8.224a2.551,2.551,0,0,1-.067.638,1.25,1.25,0,0,1-1.374.921A1.271,1.271,0,0,1,.181,11.8c-.009-.114-.006-.23-.006-.344q0-4.952,0-9.9A1.325,1.325,0,0,1,1.7.032q5.4,0,10.808,0a1.3,1.3,0,0,1,1.279.776,1.267,1.267,0,0,1-.245,1.4,1.469,1.469,0,0,1-1.136.412q-4.564-.008-9.129,0Z" transform="translate(-0.154 -0.027)" fill="#ffad08"/>
          <path id="Path_4284" data-name="Path 4284" d="M280.084,2.586h-.5q-4.155,0-8.31,0a2.362,2.362,0,0,1-.6-.057,1.272,1.272,0,0,1-.954-1.4A1.292,1.292,0,0,1,270.95.01c.459-.019.918-.005,1.378-.005h8.827a1.318,1.318,0,0,1,1.5,1.5q0,5.426,0,10.851a1.266,1.266,0,0,1-.744,1.252,1.22,1.22,0,0,1-1.336-.158,1.42,1.42,0,0,1-.5-1.225q.006-4.543,0-9.085V2.586" transform="translate(-238.665 0)" fill="#ffad08"/>
          <path id="Path_4285" data-name="Path 4285" d="M182.554,51.273q0,2.582,0,5.163a1.3,1.3,0,1,1-2.578,0q0-5.163,0-10.326a1.3,1.3,0,1,1,2.579,0q0,2.582,0,5.163" transform="translate(-159.258 -39.512)" fill="#ffad08"/>
          <path id="Path_4286" data-name="Path 4286" d="M113.94,182.307c-.459,0-.919.009-1.377,0a1.293,1.293,0,0,1-1.3-1.231,1.257,1.257,0,0,1,1.161-1.319c1-.05,2.009-.051,3.011,0a1.236,1.236,0,0,1,1.16,1.352,1.265,1.265,0,0,1-1.275,1.2c-.459.012-.918,0-1.377,0" transform="translate(-98.453 -159.03)" fill="#ffad08"/>
          <path id="Path_4287" data-name="Path 4287" d="M47.5,182.3c-.444,0-.889.008-1.333,0a1.284,1.284,0,0,1-1.313-1.211,1.248,1.248,0,0,1,1.172-1.345c.987-.047,1.979-.048,2.965,0a1.243,1.243,0,0,1,1.161,1.352,1.27,1.27,0,0,1-1.276,1.2c-.458.012-.917,0-1.376,0" transform="translate(-39.685 -159.023)" fill="#ffad08"/>
        </g>
      </g>
    </g>
  </g>
</svg>
