<svg xmlns="http://www.w3.org/2000/svg" xmlns:xlink="http://www.w3.org/1999/xlink" width="68" height="68" viewBox="0 0 68 68">
  <defs>
    <clipPath id="clip-path">
      <path id="Path_4131" data-name="Path 4131" d="M0,0H54V54H0Z" transform="translate(1383 1393)" fill="#f5f5f5"/>
    </clipPath>
  </defs>
  <g id="RFID" transform="translate(-1189 -762)">
    <circle id="Ellipse_78" data-name="Ellipse 78" cx="34" cy="34" r="34" transform="translate(1189 762)" fill="#ff0808" opacity="0.1"/>
    <g id="RFID-2" data-name="RFID" transform="translate(-187 -624)" clip-path="url(#clip-path)">
      <path id="Path_4130" data-name="Path 4130" d="M8.5,32.106V8.507H37.447V32.249H18.062L13.709,27.9V14.767H32.652V27.28H23.967l-1.626-1.628h4.387V18.284H19.36v7.368h.067l-.031.034,3.7,3.7H34.758V12.661H11.6V28.77l5.587,5.587H37.543v3.536H14.288Zm-6.4-30H37.543V6.4H6.4V32.978l4.915,4.915H2.106ZM0,40H39.647V0H0Z" transform="translate(1390 1400.001)" fill="#f34e4e"/>
    </g>
  </g>
</svg>
