<svg xmlns="http://www.w3.org/2000/svg" xmlns:xlink="http://www.w3.org/1999/xlink" width="68" height="68" viewBox="0 0 68 68">
  <defs>
    <clipPath id="clip-path">
      <path id="Path_4252" data-name="Path 4252" d="M0,0H54V54H0Z" transform="translate(1215 1447)" fill="#f5f5f5"/>
    </clipPath>
    <clipPath id="clip-path-2">
      <rect id="Rectangle_657" data-name="Rectangle 657" width="44" height="43.328" fill="#f34e4e"/>
    </clipPath>
  </defs>
  <g id="SEO_and_SMO" data-name="SEO and SMO" transform="translate(-1189 -840)">
    <circle id="Ellipse_79" data-name="Ellipse 79" cx="34" cy="34" r="34" transform="translate(1189 840)" fill="#ff0808" opacity="0.1"/>
    <g id="SEO_and_SMO-2" data-name="SEO and SMO" transform="translate(-19 -600)" clip-path="url(#clip-path)">
      <g id="Group_4725" data-name="Group 4725" transform="translate(1220.046 1452.015)">
        <g id="Group_4724" data-name="Group 4724" clip-path="url(#clip-path-2)">
          <path id="Path_4229" data-name="Path 4229" d="M117.606,151.305v-.481q0-5.733,0-11.467a1.471,1.471,0,1,1,2.935-.009q0,3.348,0,6.7v.537c1.106.279,2.2.556,3.289.829,1.392.348,2.785.688,4.176,1.038a1.538,1.538,0,0,1,1.343,1.737c0,2.2.006,4.4,0,6.6a7.329,7.329,0,0,1-14.526,1.473,12.113,12.113,0,0,1-.138-2.875,7.078,7.078,0,0,0-1-4.162,4.793,4.793,0,0,1-.412-.867,1.144,1.144,0,0,1,1.081-1.567,3.236,3.236,0,0,1,3.046,2.1c.051.138.093.278.139.418l.063-.008" transform="translate(-99.326 -120.888)" fill="#f34e4e"/>
          <path id="Path_4230" data-name="Path 4230" d="M36.833,75.788v5.856H35.361V75.83Z" transform="translate(-31.027 -66.5)" fill="#f34e4e"/>
          <path id="Path_4231" data-name="Path 4231" d="M35.278,242.67v-4.753h1.475v4.75Z" transform="translate(-30.954 -208.759)" fill="#f34e4e"/>
          <path id="Path_4232" data-name="Path 4232" d="M275.572,265.59c.4-.381.784-.775,1.2-1.128a.612.612,0,0,1,.466-.022c.3.079.532.288.9.141a.992.992,0,0,0,.664-.785.388.388,0,0,1,.485-.346,2.971,2.971,0,0,0,.641,0c.587-.063,1.05,0,1.2.723a.844.844,0,0,0,1.11.381c.474-.308.779-.174,1.108.217a9.2,9.2,0,0,0,.868.807l-.261.564a.886.886,0,0,0,.547,1.3.613.613,0,0,1,.527.777,1.866,1.866,0,0,0,0,.549.8.8,0,0,1-.672,1.05.834.834,0,0,0-.419,1.166.666.666,0,0,1-.2,1.031,1.416,1.416,0,0,0-.324.323.8.8,0,0,1-1.248.267.867.867,0,0,0-1.079.469.748.748,0,0,1-1,.665,1.089,1.089,0,0,0-.32,0c-.569.076-.977-.027-1.121-.7a.829.829,0,0,0-1.141-.389.668.668,0,0,1-1.033-.186,1.592,1.592,0,0,0-.355-.356.776.776,0,0,1-.251-1.213.859.859,0,0,0-.493-1.1c-.522-.127-.734-.405-.632-.93a.9.9,0,0,0,0-.274c-.075-.6-.019-1.087.733-1.236.349-.07.54-.736.391-1.082-.09-.208-.186-.414-.3-.674m4.312,5.936a2.935,2.935,0,1,0-2.928-2.953,2.941,2.941,0,0,0,2.928,2.953" transform="translate(-241.057 -231.146)" fill="#f34e4e"/>
          <path id="Path_4233" data-name="Path 4233" d="M294.011,3.289l-1.513-1.6L291.4,2.86a5.352,5.352,0,0,1,.615.459,2.474,2.474,0,0,1,.365,2.95,2.2,2.2,0,0,1-4.091-1.024c-.059-1.256-.05-1.281.784-2l.784,1.036,1.016-1.13L289.08,1.359,286.921,3.2a1.829,1.829,0,0,1,.018-1.323,2.629,2.629,0,0,1,2.42-1.858c.764-.021,1.53-.028,2.293,0a2.587,2.587,0,0,1,2.419,3.148.839.839,0,0,1-.059.12" transform="translate(-251.654 0)" fill="#f34e4e"/>
          <path id="Path_4234" data-name="Path 4234" d="M286.438,83.421h-9.96a3.271,3.271,0,0,1,2.014-3.307c.344-.131.564-.106.74.245a5.166,5.166,0,0,0,.481.725,2.092,2.092,0,0,0,3.412.022,7.049,7.049,0,0,0,.561-.836.4.4,0,0,1,.565-.2,2.9,2.9,0,0,1,1.913,1.95,13.538,13.538,0,0,1,.275,1.4" transform="translate(-242.594 -70.22)" fill="#f34e4e"/>
          <path id="Path_4235" data-name="Path 4235" d="M148.937,87.055h-5.913l.329-2.886h5.242l.342,2.886" transform="translate(-125.496 -73.854)" fill="#f34e4e"/>
          <path id="Path_4236" data-name="Path 4236" d="M104.293,120.14l.3,2.9c-.978,0-1.937.007-2.9-.01a.4.4,0,0,1-.282-.23c-.291-.859-.561-1.725-.861-2.662Z" transform="translate(-88.227 -105.416)" fill="#f34e4e"/>
          <path id="Path_4237" data-name="Path 4237" d="M105.655,83.948l-.295,2.9h-3.588a6.959,6.959,0,0,1,.772-2.772.288.288,0,0,1,.217-.123c.96-.008,1.92-.005,2.894-.005" transform="translate(-89.299 -73.659)" fill="#f34e4e"/>
          <path id="Path_4238" data-name="Path 4238" d="M204.684,86.859h-3.6l-.3-2.916c.974,0,1.934-.006,2.894.009a.382.382,0,0,1,.257.2,7.255,7.255,0,0,1,.743,2.706" transform="translate(-176.182 -73.655)" fill="#f34e4e"/>
          <path id="Path_4239" data-name="Path 4239" d="M200.726,122.984l.3-2.911h3.6a7.09,7.09,0,0,1-.779,2.776.337.337,0,0,1-.258.129c-.943.009-1.886.006-2.859.006" transform="translate(-176.126 -105.357)" fill="#f34e4e"/>
          <path id="Path_4240" data-name="Path 4240" d="M153.591,50.866h-4.4a5.357,5.357,0,0,1,1.562-2.686,1,1,0,0,1,1.443.139,5.93,5.93,0,0,1,1.393,2.547" transform="translate(-130.908 -42.057)" fill="#f34e4e"/>
          <path id="Path_4241" data-name="Path 4241" d="M42.044,137.023a14.436,14.436,0,0,0-5.82-2.1v-3.174a14.485,14.485,0,0,0,5.82-2.106Z" transform="translate(-31.785 -113.757)" fill="#f34e4e"/>
          <path id="Path_4242" data-name="Path 4242" d="M23.432,188H21.961L20,182.755c1.148.179,2.17.33,3.187.508a.4.4,0,0,1,.239.3c.016,1.465.011,2.93.011,4.438" transform="translate(-17.544 -160.357)" fill="#f34e4e"/>
          <path id="Path_4243" data-name="Path 4243" d="M3,147.769v2.92c-.78,0-1.553.032-2.321-.014a.651.651,0,0,1-.593-.7c-.013-.488-.017-.977,0-1.464a.713.713,0,0,1,.765-.736c.7-.014,1.4,0,2.149,0" transform="translate(-0.064 -129.656)" fill="#f34e4e"/>
          <path id="Path_4244" data-name="Path 4244" d="M149.136,120.192l-.328,2.847c-.3.07-.487.108-.623-.225a2.891,2.891,0,0,0-4.557-1.286c-.058.041-.122.075-.242.149-.044-.517-.083-.981-.125-1.486Z" transform="translate(-125.703 -105.462)" fill="#f34e4e"/>
          <rect id="Rectangle_654" data-name="Rectangle 654" width="1.413" height="4.346" transform="translate(38.133 16.18)" fill="#f34e4e"/>
          <rect id="Rectangle_655" data-name="Rectangle 655" width="1.418" height="4.344" transform="translate(38.122 25.001)" fill="#f34e4e"/>
          <path id="Path_4245" data-name="Path 4245" d="M185.265,156.014h3.941a8.079,8.079,0,0,1-3.941,2.588Z" transform="translate(-162.56 -136.894)" fill="#f34e4e"/>
          <path id="Path_4246" data-name="Path 4246" d="M190.252,52.438a8.027,8.027,0,0,1,3.328,2.392c-.819,0-1.542.007-2.265-.009a.36.36,0,0,1-.253-.192c-.3-.7-.58-1.4-.863-2.108-.006-.014.026-.043.053-.083" transform="translate(-166.888 -46.011)" fill="#f34e4e"/>
          <path id="Path_4247" data-name="Path 4247" d="M119.9,52.321c-.3.774-.564,1.5-.856,2.21a.4.4,0,0,1-.3.188c-.7.017-1.4.009-2.205.009a7.961,7.961,0,0,1,3.361-2.407" transform="translate(-102.254 -45.909)" fill="#f34e4e"/>
          <path id="Path_4248" data-name="Path 4248" d="M116.5,155.983h2.511v2a7.862,7.862,0,0,1-2.511-2" transform="translate(-102.222 -136.866)" fill="#f34e4e"/>
          <path id="Path_4249" data-name="Path 4249" d="M308.706,72.655a2.333,2.333,0,0,1-.478-.347,5.617,5.617,0,0,1-.534-.794.354.354,0,0,1-.028-.31.481.481,0,0,1,.328-.13c.527-.014,1.055.013,1.581-.019.278-.017.429.168.345.321a8.1,8.1,0,0,1-.82,1.139c-.063.079-.221.082-.393.14" transform="translate(-269.937 -62.346)" fill="#f34e4e"/>
          <rect id="Rectangle_656" data-name="Rectangle 656" width="1.395" height="1.427" transform="translate(38.136 22.062)" fill="#f34e4e"/>
          <path id="Path_4250" data-name="Path 4250" d="M5.061,269.213a.925.925,0,1,0,.924.926.925.925,0,0,0-.924-.926m0,0a.925.925,0,1,0,.924.926.925.925,0,0,0-.924-.926m3.579-2.653a5.063,5.063,0,1,0,1.482,3.579,5.039,5.039,0,0,0-1.482-3.579m-.82,4.724a2.039,2.039,0,0,1-.13.673,1.343,1.343,0,0,1-.32.491,1.362,1.362,0,0,1-.491.32,2.006,2.006,0,0,1-.673.128c-.3.014-.391.017-1.145.017s-.848,0-1.145-.017a2.006,2.006,0,0,1-.673-.128,1.362,1.362,0,0,1-.491-.32,1.343,1.343,0,0,1-.32-.491,2.039,2.039,0,0,1-.13-.673c-.013-.3-.015-.391-.015-1.145s0-.848.015-1.145a2.039,2.039,0,0,1,.13-.673,1.413,1.413,0,0,1,.811-.811,2.036,2.036,0,0,1,.673-.13c.3-.013.391-.017,1.145-.017s.848,0,1.145.017a2.036,2.036,0,0,1,.673.13,1.413,1.413,0,0,1,.811.811,2.039,2.039,0,0,1,.13.673c.013.3.015.391.015,1.145s0,.848-.015,1.145m-.6-2.782a.919.919,0,0,0-.526-.526,1.547,1.547,0,0,0-.515-.1c-.294-.013-.381-.016-1.122-.016s-.828,0-1.122.016a1.547,1.547,0,0,0-.515.1.87.87,0,0,0-.319.207.86.86,0,0,0-.207.319,1.532,1.532,0,0,0-.1.515c-.013.293-.016.381-.016,1.122s0,.828.016,1.121a1.531,1.531,0,0,0,.1.515.864.864,0,0,0,.207.32.891.891,0,0,0,.319.208,1.523,1.523,0,0,0,.515.095c.294.014.381.017,1.122.017s.828,0,1.122-.017A1.523,1.523,0,0,0,6.7,272.3a.88.88,0,0,0,.319-.208.865.865,0,0,0,.207-.32,1.534,1.534,0,0,0,.1-.515c.013-.292.016-.38.016-1.121s0-.828-.016-1.122a1.535,1.535,0,0,0-.1-.515m-2.163,3.062a1.425,1.425,0,1,1,1.425-1.425,1.426,1.426,0,0,1-1.425,1.425m1.482-2.574a.333.333,0,1,1,.333-.333.333.333,0,0,1-.333.333m-1.482.223a.925.925,0,1,0,.924.926.925.925,0,0,0-.924-.926" transform="translate(0 -232.589)" fill="#f34e4e"/>
          <path id="Path_4251" data-name="Path 4251" d="M8.712,1.483a5.062,5.062,0,1,0,1.482,3.579A5.044,5.044,0,0,0,8.712,1.483M6.545,3.075H5.879c-.236,0-.285.1-.285.339V4h.951L6.453,5.035H5.594V8.119H4.362V5.047H3.721V4h.641V3.179C4.362,2.406,4.775,2,5.692,2h.852Z" transform="translate(-0.063)" fill="#f34e4e"/>
        </g>
      </g>
    </g>
  </g>
</svg>
