<svg xmlns="http://www.w3.org/2000/svg" xmlns:xlink="http://www.w3.org/1999/xlink" width="68" height="68" viewBox="0 0 68 68">
  <defs>
    <clipPath id="clip-path">
      <path id="Path_4137" data-name="Path 4137" d="M0,0H54V54H0Z" transform="translate(1226 1331)" fill="#f5f5f5"/>
    </clipPath>
  </defs>
  <g id="Student_App" data-name="Student App" transform="translate(-810 -1196)">
    <circle id="Ellipse_87" data-name="Ellipse 87" cx="34" cy="34" r="34" transform="translate(810 1196)" fill="#ffad08" opacity="0.1"/>
    <g id="Student_App-2" data-name="Student App" transform="translate(-409 -128)" clip-path="url(#clip-path)">
      <g id="Group_4698" data-name="Group 4698" transform="translate(-3 3)">
        <g id="Group_4249" data-name="Group 4249" transform="translate(1239 1331)">
          <g id="Group_4248" data-name="Group 4248">
            <path id="Path_3761" data-name="Path 3761" d="M507.372,790.973H484.71a5.566,5.566,0,0,0-5.562,5.562v36.875a5.566,5.566,0,0,0,5.562,5.562h22.662a5.575,5.575,0,0,0,5.572-5.562V796.535A5.574,5.574,0,0,0,507.372,790.973Zm-25.347,5.562a2.687,2.687,0,0,1,2.685-2.685h22.662a2.689,2.689,0,0,1,2.695,2.685v1.65H482.024Zm0,3.8h28.042v28.522H482.024Zm28.042,33.077a2.7,2.7,0,0,1-2.695,2.685H484.71a2.694,2.694,0,0,1-2.685-2.685v-2.4h28.042Z" transform="translate(-479.147 -790.973)" fill="#ffad08"/>
          </g>
          <rect id="Rectangle_513" data-name="Rectangle 513" width="9.111" height="2.15" rx="1.075" transform="translate(12.332 3.656)" fill="#ffad08"/>
          <rect id="Rectangle_514" data-name="Rectangle 514" width="11.867" height="2.15" rx="1.075" transform="translate(10.954 41.269)" fill="#ffad08"/>
        </g>
        <g id="Group_4697" data-name="Group 4697" transform="translate(0.251)">
          <path id="Path_124" data-name="Path 124" d="M489.313,809.709V817.8a1.156,1.156,0,0,0,1.156,1.156h8.095a1.16,1.16,0,0,0,1.156-1.156v-8.095a1.16,1.16,0,0,0-1.156-1.156h-8.095A1.156,1.156,0,0,0,489.313,809.709Zm6.938,2.313a1.735,1.735,0,1,1-1.735-1.735A1.735,1.735,0,0,1,496.252,812.023Zm-5.2,4.625c0-1.156,2.313-1.792,3.469-1.792s3.47.636,3.47,1.792v.578h-6.939Z" transform="translate(754.436 533.447)" fill="#ffad08"/>
          <g id="Group_4696" data-name="Group 4696">
            <rect id="Rectangle_605" data-name="Rectangle 605" width="7" height="2" transform="translate(1256 1342)" fill="#ffad08"/>
            <rect id="Rectangle_609" data-name="Rectangle 609" width="11" height="2" transform="translate(1256 1346)" fill="#ffad08"/>
            <rect id="Rectangle_608" data-name="Rectangle 608" width="11" height="2" transform="translate(1256 1350)" fill="#ffad08"/>
          </g>
        </g>
        <rect id="Rectangle_613" data-name="Rectangle 613" width="10.41" height="10.41" rx="1" transform="translate(1257 1355)" fill="#ffad08"/>
        <rect id="Rectangle_614" data-name="Rectangle 614" width="10.41" height="10.41" rx="1" transform="translate(1244 1355)" fill="#ffad08"/>
      </g>
    </g>
  </g>
</svg>
