<svg xmlns="http://www.w3.org/2000/svg" xmlns:xlink="http://www.w3.org/1999/xlink" width="68" height="68" viewBox="0 0 68 68">
  <defs>
    <clipPath id="clip-path">
      <path id="Path_4091" data-name="Path 4091" d="M0,0H54V54H0Z" transform="translate(1156 1237)" fill="#f5f5f5"/>
    </clipPath>
  </defs>
  <g id="Visitor_App" data-name="Visitor App" transform="translate(-738 -1108)">
    <circle id="Ellipse_85" data-name="Ellipse 85" cx="34" cy="34" r="34" transform="translate(738 1108)" fill="#00cf61" opacity="0.1"/>
    <g id="Visitor_App-2" data-name="Visitor App" transform="translate(-411 -122)" clip-path="url(#clip-path)">
      <g id="Group_4691" data-name="Group 4691" transform="translate(-0.93 -21.498)">
        <path id="Path_4103" data-name="Path 4103" d="M31.4,123.422v3.31l-1.527.466v-2.223H14.391v10.8h8.53c-.325,6.284,2.529,10.3,8.469,12.234v1.7H12.831V123.422ZM21.312,137.37H14.393v1.5h6.919Zm-.007,3.1H14.394v1.511H21.3Zm.008,3.1H14.394v1.493h6.919Zm-6.937,4.586H21.3v-1.495H14.376Z" transform="translate(1164.674 1148.931)" fill="#29c875"/>
        <path id="Path_4104" data-name="Path 4104" d="M10.559,153.64V121.162H35.316v6.171H33.809v-4.64H12.131v29.4H33.785v-3.067h1.537v4.611Z" transform="translate(1163.834 1148.095)" fill="#29c875"/>
        <path id="Path_4105" data-name="Path 4105" d="M38.872,140.236a4.113,4.113,0,0,0-3.259-2.526c-.9-.178-1.777-.444-2.741-.69a1.9,1.9,0,0,1,.233-.326,3.5,3.5,0,0,0,1.319-2.5,11.661,11.661,0,0,0-.142-3.023,3.731,3.731,0,0,0-3.851-2.825,3.878,3.878,0,0,0-3.589,3.189,12.348,12.348,0,0,0-.071,2.6,3.593,3.593,0,0,0,1.33,2.548,2.713,2.713,0,0,1,.255.325c-.478.125-.888.234-1.3.338-.532.133-1.063.266-1.595.393a4.062,4.062,0,0,0-3.134,2.463,9.155,9.155,0,0,1,2.03-11.016,9.346,9.346,0,0,1,12.3-.166,9.181,9.181,0,0,1,2.21,11.212" transform="translate(1167.805 1150.178)" fill="#29c875"/>
        <path id="Path_4106" data-name="Path 4106" d="M32.31,132.163c0,.226,0,.452,0,.678a2.225,2.225,0,0,1-1.164,2.085.686.686,0,0,0-.395.729,12.08,12.08,0,0,1,0,1.355c-.014.292.074.419.375.489,1.3.3,2.595.637,3.889.964a2.383,2.383,0,0,1,1.934,2.752.775.775,0,0,1-.205.408,9.276,9.276,0,0,1-13.5.032,1.379,1.379,0,0,1-.178-1.364,2.3,2.3,0,0,1,1.9-1.833c1.284-.308,2.558-.649,3.842-.949.31-.073.448-.186.41-.51a2.744,2.744,0,0,1,0-.581,1.575,1.575,0,0,0-.777-1.8,1.793,1.793,0,0,1-.775-1.638c0-.5-.005-1,0-1.5a2.377,2.377,0,0,1,2.367-2.419,2.308,2.308,0,0,1,2.279,2.429c0,.226,0,.452,0,.678" transform="translate(1168.424 1151.015)" fill="#29c875"/>
        <path id="Path_4107" data-name="Path 4107" d="M10.559,121.219c0-.867-.034-1.707.008-2.541a2.275,2.275,0,0,1,2.238-2.067c1.97-.011,3.938,0,5.908,0h14.14a2.309,2.309,0,0,1,2.5,2.5c0,.692,0,1.385,0,2.112Zm13.921-3.036H18.335v1.5h6.144Zm3.107.005H26.093v1.492h1.493Z" transform="translate(1163.828 1146.409)" fill="#29c875"/>
        <path id="Path_4108" data-name="Path 4108" d="M10.552,146.049H35.338c0,.907.066,1.8-.016,2.671a2.249,2.249,0,0,1-2.245,1.949q-10.122.008-20.241,0a2.288,2.288,0,0,1-2.282-2.279c-.008-.77,0-1.541,0-2.341m9.329,3.042h6.136v-1.511H19.881Zm-6.207.005h1.5v-1.5h-1.5Zm17.058,0h1.488v-1.5H30.731Z" transform="translate(1163.83 1157.3)" fill="#29c875"/>
        <path id="Path_4109" data-name="Path 4109" d="M15.1,125.669h12.36c0,.444.011.889-.008,1.332a.393.393,0,0,1-.185.249,11.032,11.032,0,0,0-4.756,6.082.382.382,0,0,1-.032.058H15.1Z" transform="translate(1165.515 1149.762)" fill="#29c875"/>
        <path id="Path_4110" data-name="Path 4110" d="M32.476,117.746h1.547v.514c0,1.793.005,3.585-.005,5.377a.565.565,0,0,0,.34.6,2.263,2.263,0,0,1,1.153,2.578,2.33,2.33,0,0,1-4.521.005,2.261,2.261,0,0,1,1.147-2.581.568.568,0,0,0,.347-.6c-.014-1.777-.007-3.552-.007-5.329Z" transform="translate(1171.362 1146.831)" fill="#29c875"/>
        <path id="Path_4111" data-name="Path 4111" d="M7.993,151.2H6.446v-.542c0-1.777-.005-3.553,0-5.329a.563.563,0,0,0-.332-.607,2.254,2.254,0,0,1-1.163-2.571,2.33,2.33,0,0,1,4.521-.021,2.263,2.263,0,0,1-1.137,2.585.6.6,0,0,0-.352.641c.011,1.759.005,3.519.005,5.279v.564" transform="translate(1161.734 1155.2)" fill="#29c875"/>
        <rect id="Rectangle_598" data-name="Rectangle 598" width="1.486" height="1.49" transform="translate(1203.875 1261.498)" fill="#29c875"/>
        <rect id="Rectangle_599" data-name="Rectangle 599" width="1.497" height="1.489" transform="translate(1168.201 1308.009)" fill="#29c875"/>
        <path id="Path_4112" data-name="Path 4112" d="M5.668,129.282A3.517,3.517,0,1,0,9.186,132.8a3.517,3.517,0,0,0-3.518-3.518m2.341,2.888-2.26,2.26-.377.377a.528.528,0,0,1-.7.044L3.327,133.5a.53.53,0,0,1,.374-.9.524.524,0,0,1,.374.156l.926.926,2.26-2.26a.529.529,0,0,1,.748.748" transform="translate(1160.723 1151.098)" fill="#29c875"/>
        <path id="Path_4113" data-name="Path 4113" d="M12.361,128.3a7.453,7.453,0,0,1-5.508-2.456.5.5,0,0,0-.755,0,7.789,7.789,0,0,1-5.612,2.479.583.583,0,0,0-.485.4v5.849a9.511,9.511,0,0,0,6.451,8.1,9.211,9.211,0,0,0,6.455-8.193v-5.868s-.045-.314-.545-.305m-5.9,10.325a4.488,4.488,0,1,1,4.489-4.489,4.489,4.489,0,0,1-4.489,4.489" transform="translate(1159.928 1149.762)" fill="#29c875"/>
        <path id="Path_4114" data-name="Path 4114" d="M5.668,129.282A3.517,3.517,0,1,0,9.186,132.8a3.517,3.517,0,0,0-3.518-3.518m2.341,2.888-2.26,2.26-.377.377a.528.528,0,0,1-.7.044L3.327,133.5a.53.53,0,0,1,.374-.9.524.524,0,0,1,.374.156l.926.926,2.26-2.26a.529.529,0,0,1,.748.748" transform="translate(1160.723 1151.098)" fill="#29c875"/>
      </g>
    </g>
  </g>
</svg>
